<svg width="18" height="24" viewBox="0 0 18 24" fill="none" xmlns="http://www.w3.org/2000/svg">
<path d="M9.48759 19L5.63636 15.0577V14.2404H7.54545C8.18916 14.2404 8.77433 14.0407 9.30096 13.6412C9.82759 13.2418 10.0966 12.6723 10.108 11.9327H5V11.3077H10.0395C9.90815 10.8149 9.61383 10.4113 9.15655 10.0968C8.69927 9.78225 8.16224 9.625 7.54545 9.625H5V9H12V9.625H9.49126C9.79476 9.80208 10.0579 10.0409 10.2806 10.3413C10.5033 10.6418 10.6424 10.9639 10.6979 11.3077H12V11.9327H10.7481C10.7448 12.8181 10.4226 13.5282 9.7813 14.0631C9.14004 14.598 8.39476 14.8654 7.54545 14.8654H6.33759L10.3724 19H9.48759Z" fill="#576470"/>
<path d="M2.07691 24C1.48516 24 0.991071 23.7944 0.594643 23.3833C0.198214 22.9722 0 22.4598 0 21.8462V2.15383C0 1.54017 0.198214 1.02778 0.594643 0.616667C0.991071 0.205556 1.48516 0 2.07691 0H12.2143L18 6V21.8462C18 22.4598 17.8018 22.9722 17.4054 23.3833C17.0089 23.7944 16.5148 24 15.9231 24H2.07691ZM11.5714 6.35897V1.33333H2.07691C1.87912 1.33333 1.69781 1.4188 1.53296 1.58973C1.36813 1.76069 1.28571 1.94872 1.28571 2.15383V21.8462C1.28571 22.0513 1.36813 22.2393 1.53296 22.4103C1.69781 22.5812 1.87912 22.6667 2.07691 22.6667H15.9231C16.1209 22.6667 16.3022 22.5812 16.467 22.4103C16.6319 22.2393 16.7143 22.0513 16.7143 21.8462V6.35897H11.5714Z" fill="#576470"/>
</svg>
