<svg width="75" height="77" viewBox="0 0 75 77" fill="none" xmlns="http://www.w3.org/2000/svg">
<path d="M22.5869 77C20.6458 77 18.9953 76.3213 17.6355 74.9639C16.2757 73.6064 15.5958 71.9588 15.5958 70.021C15.5958 68.0833 16.2757 66.4357 17.6355 65.0782C18.9953 63.7207 20.6458 63.042 22.5869 63.042C24.528 63.042 26.1785 63.7207 27.5383 65.0782C28.8981 66.4357 29.5781 68.0833 29.5781 70.021C29.5781 71.9588 28.8981 73.6064 27.5383 74.9639C26.1785 76.3213 24.528 77 22.5869 77ZM61.3073 77C59.3662 77 57.7157 76.3213 56.3558 74.9639C54.996 73.6064 54.3161 71.9588 54.3161 70.021C54.3161 68.0833 54.996 66.4357 56.3558 65.0782C57.7157 63.7207 59.3662 63.042 61.3073 63.042C63.2484 63.042 64.8989 63.7207 66.2587 65.0782C67.6185 66.4357 68.2984 68.0833 68.2984 70.021C68.2984 71.9588 67.6185 73.6064 66.2587 74.9639C64.8989 76.3213 63.2484 77 61.3073 77ZM15.1654 7.97612H70.6339C72.2677 7.97612 73.5033 8.67018 74.3407 10.0583C75.1781 11.4465 75.2178 12.864 74.4598 14.311L61.6607 37.4569C61.005 38.6073 60.1381 39.5033 59.06 40.145C57.9819 40.7866 56.8001 41.1074 55.5146 41.1074H26.3667L21.7417 49.5438C21.5368 49.8506 21.5305 50.183 21.7225 50.5409C21.9146 50.8988 22.2027 51.0778 22.5869 51.0778H68.2984V57.0597H22.5869C19.9236 57.0597 17.9223 55.9132 16.5829 53.6201C15.2436 51.327 15.1962 49.0377 16.4408 46.7522L22.1414 36.5213L7.60582 5.9819H0V0H11.3702L15.1654 7.97612Z" fill="#E4E4E4" fill-opacity="0.8"/>
</svg>
