<svg width="24" height="24" viewBox="0 0 24 24" fill="none" xmlns="http://www.w3.org/2000/svg">
<path d="M6.01062 6.61684C5.3512 6.61684 4.79205 6.38623 4.33319 5.92501C3.8743 5.46379 3.64486 4.90934 3.64486 4.26168V2.35512C3.64486 1.70746 3.87547 1.15303 4.33669 0.691831C4.79791 0.230611 5.35234 0 5.99998 0H17.9894C18.6488 0 19.2079 0.230611 19.6668 0.691831C20.1257 1.15303 20.3551 1.70746 20.3551 2.35512V4.26168C20.3551 4.90934 20.1245 5.46379 19.6633 5.92501C19.2021 6.38623 18.6477 6.61684 18 6.61684H6.01062ZM5.99998 5.15886H18C18.2804 5.15886 18.5 5.07942 18.6589 4.92056C18.8178 4.76169 18.8972 4.54206 18.8972 4.26168V2.35512C18.8972 2.07476 18.8178 1.85514 18.6589 1.69624C18.5 1.53738 18.2804 1.45794 18 1.45794H5.99998C5.71962 1.45794 5.50001 1.53738 5.34114 1.69624C5.18225 1.85514 5.1028 2.07476 5.1028 2.35512V4.26168C5.1028 4.54206 5.18225 4.76169 5.34114 4.92056C5.50001 5.07942 5.71962 5.15886 5.99998 5.15886ZM2.35512 24C1.70746 24 1.15303 23.7694 0.69183 23.3082C0.23061 22.847 0 22.2925 0 21.6449V20.1869H24V21.6449C24 22.2972 23.7694 22.8528 23.3082 23.3117C22.847 23.7706 22.2925 24 21.6449 24H2.35512ZM0 19.0654L3.96783 9.49074C4.15811 9.04208 4.45174 8.69392 4.84872 8.44626C5.24569 8.19861 5.67244 8.07478 6.12897 8.07478H17.871C18.3276 8.07478 18.7543 8.19861 19.1513 8.44626C19.5483 8.69392 19.8419 9.04208 20.0322 9.49074L24 19.0654H0ZM7.23366 16.7103H8.6916C8.84114 16.7103 8.97197 16.6542 9.08411 16.5421C9.19625 16.4299 9.25232 16.2991 9.25232 16.1495C9.25232 16 9.19625 15.8692 9.08411 15.757C8.97197 15.6449 8.84114 15.5888 8.6916 15.5888H7.23366C7.08412 15.5888 6.95327 15.6449 6.84111 15.757C6.72897 15.8692 6.6729 16 6.6729 16.1495C6.6729 16.2991 6.72897 16.4299 6.84111 16.5421C6.95327 16.6542 7.08412 16.7103 7.23366 16.7103ZM7.23366 14.1309H8.6916C8.84114 14.1309 8.97197 14.0748 9.08411 13.9626C9.19625 13.8505 9.25232 13.7196 9.25232 13.5701C9.25232 13.4206 9.19625 13.2897 9.08411 13.1776C8.97197 13.0654 8.84114 13.0093 8.6916 13.0093H7.23366C7.08412 13.0093 6.95327 13.0654 6.84111 13.1776C6.72897 13.2897 6.6729 13.4206 6.6729 13.5701C6.6729 13.7196 6.72897 13.8505 6.84111 13.9626C6.95327 14.0748 7.08412 14.1309 7.23366 14.1309ZM7.23366 11.5514H8.6916C8.84114 11.5514 8.97197 11.4953 9.08411 11.3832C9.19625 11.271 9.25232 11.1402 9.25232 10.9907C9.25232 10.8411 9.19625 10.7103 9.08411 10.5981C8.97197 10.486 8.84114 10.4299 8.6916 10.4299H7.23366C7.08412 10.4299 6.95327 10.486 6.84111 10.5981C6.72897 10.7103 6.6729 10.8411 6.6729 10.9907C6.6729 11.1402 6.72897 11.271 6.84111 11.3832C6.95327 11.4953 7.08412 11.5514 7.23366 11.5514ZM11.271 16.7103H12.729C12.8785 16.7103 13.0093 16.6542 13.1215 16.5421C13.2337 16.4299 13.2897 16.2991 13.2897 16.1495C13.2897 16 13.2337 15.8692 13.1215 15.757C13.0093 15.6449 12.8785 15.5888 12.729 15.5888H11.271C11.1215 15.5888 10.9907 15.6449 10.8785 15.757C10.7663 15.8692 10.7103 16 10.7103 16.1495C10.7103 16.2991 10.7663 16.4299 10.8785 16.5421C10.9907 16.6542 11.1215 16.7103 11.271 16.7103ZM11.271 14.1309H12.729C12.8785 14.1309 13.0093 14.0748 13.1215 13.9626C13.2337 13.8505 13.2897 13.7196 13.2897 13.5701C13.2897 13.4206 13.2337 13.2897 13.1215 13.1776C13.0093 13.0654 12.8785 13.0093 12.729 13.0093H11.271C11.1215 13.0093 10.9907 13.0654 10.8785 13.1776C10.7663 13.2897 10.7103 13.4206 10.7103 13.5701C10.7103 13.7196 10.7663 13.8505 10.8785 13.9626C10.9907 14.0748 11.1215 14.1309 11.271 14.1309ZM11.271 11.5514H12.729C12.8785 11.5514 13.0093 11.4953 13.1215 11.3832C13.2337 11.271 13.2897 11.1402 13.2897 10.9907C13.2897 10.8411 13.2337 10.7103 13.1215 10.5981C13.0093 10.486 12.8785 10.4299 12.729 10.4299H11.271C11.1215 10.4299 10.9907 10.486 10.8785 10.5981C10.7663 10.7103 10.7103 10.8411 10.7103 10.9907C10.7103 11.1402 10.7663 11.271 10.8785 11.3832C10.9907 11.4953 11.1215 11.5514 11.271 11.5514ZM15.3084 16.7103H16.7663C16.9159 16.7103 17.0467 16.6542 17.1589 16.5421C17.271 16.4299 17.3271 16.2991 17.3271 16.1495C17.3271 16 17.271 15.8692 17.1589 15.757C17.0467 15.6449 16.9159 15.5888 16.7663 15.5888H15.3084C15.1589 15.5888 15.028 15.6449 14.9159 15.757C14.8037 15.8692 14.7477 16 14.7477 16.1495C14.7477 16.2991 14.8037 16.4299 14.9159 16.5421C15.028 16.6542 15.1589 16.7103 15.3084 16.7103ZM15.3084 14.1309H16.7663C16.9159 14.1309 17.0467 14.0748 17.1589 13.9626C17.271 13.8505 17.3271 13.7196 17.3271 13.5701C17.3271 13.4206 17.271 13.2897 17.1589 13.1776C17.0467 13.0654 16.9159 13.0093 16.7663 13.0093H15.3084C15.1589 13.0093 15.028 13.0654 14.9159 13.1776C14.8037 13.2897 14.7477 13.4206 14.7477 13.5701C14.7477 13.7196 14.8037 13.8505 14.9159 13.9626C15.028 14.0748 15.1589 14.1309 15.3084 14.1309ZM15.3084 11.5514H16.7663C16.9159 11.5514 17.0467 11.4953 17.1589 11.3832C17.271 11.271 17.3271 11.1402 17.3271 10.9907C17.3271 10.8411 17.271 10.7103 17.1589 10.5981C17.0467 10.486 16.9159 10.4299 16.7663 10.4299H15.3084C15.1589 10.4299 15.028 10.486 14.9159 10.5981C14.8037 10.7103 14.7477 10.8411 14.7477 10.9907C14.7477 11.1402 14.8037 11.271 14.9159 11.3832C15.028 11.4953 15.1589 11.5514 15.3084 11.5514Z" fill="#576470"/>
</svg>
