<svg xmlns="http://www.w3.org/2000/svg" width="100" height="20" viewBox="0 0 100 20" fill="none">
  <path d="M9.33426 2.04894C9.54381 1.40402 10.4562 1.40402 10.6657 2.04894L12.088 6.42614C12.1817 6.71456 12.4505 6.90983 12.7537 6.90983H17.3562C18.0343 6.90983 18.3162 7.77756 17.7676 8.17614L14.0442 10.8814C13.7988 11.0597 13.6962 11.3756 13.7899 11.664L15.2121 16.0412C15.4217 16.6862 14.6835 17.2224 14.1349 16.8239L10.4114 14.1186C10.1661 13.9403 9.83389 13.9403 9.58855 14.1186L5.86508 16.8239C5.31648 17.2224 4.57834 16.6862 4.78789 16.0412L6.21013 11.664C6.30384 11.3756 6.20118 11.0597 5.95584 10.8814L2.23236 8.17614C1.68376 7.77756 1.96571 6.90983 2.64381 6.90983H7.24628C7.54954 6.90983 7.81831 6.71456 7.91202 6.42614L9.33426 2.04894Z" fill="#F2B237"/>
  <path d="M49.3343 2.04894C49.5438 1.40402 50.4562 1.40402 50.6657 2.04894L52.088 6.42614C52.1817 6.71456 52.4505 6.90983 52.7537 6.90983H57.3562C58.0343 6.90983 58.3162 7.77756 57.7676 8.17614L54.0442 10.8814C53.7988 11.0597 53.6962 11.3756 53.7899 11.664L55.2121 16.0412C55.4217 16.6862 54.6835 17.2224 54.1349 16.8239L50.4114 14.1186C50.1661 13.9403 49.8339 13.9403 49.5886 14.1186L45.8651 16.8239C45.3165 17.2224 44.5783 16.6862 44.7879 16.0412L46.2101 11.664C46.3038 11.3756 46.2012 11.0597 45.9558 10.8814L42.2324 8.17614C41.6838 7.77756 41.9657 6.90983 42.6438 6.90983H47.2463C47.5495 6.90983 47.8183 6.71456 47.912 6.42614L49.3343 2.04894Z" fill="#F2B237"/>
  <path d="M89.3343 2.04894C89.5438 1.40402 90.4562 1.40402 90.6657 2.04894L92.088 6.42614C92.1817 6.71456 92.4505 6.90983 92.7537 6.90983H97.3562C98.0343 6.90983 98.3162 7.77756 97.7676 8.17614L94.0442 10.8814C93.7988 11.0597 93.6962 11.3756 93.7899 11.664L95.2121 16.0412C95.4217 16.6862 94.6835 17.2224 94.1349 16.8239L90.4114 14.1186C90.1661 13.9403 89.8339 13.9403 89.5886 14.1186L85.8651 16.8239C85.3165 17.2224 84.5783 16.6862 84.7879 16.0412L86.2101 11.664C86.3038 11.3756 86.2012 11.0597 85.9558 10.8814L82.2324 8.17614C81.6838 7.77756 81.9657 6.90983 82.6438 6.90983H87.2463C87.5495 6.90983 87.8183 6.71456 87.912 6.42614L89.3343 2.04894Z" fill="#F2B237"/>
  <path d="M29.3343 2.04894C29.5438 1.40402 30.4562 1.40402 30.6657 2.04894L32.088 6.42614C32.1817 6.71456 32.4505 6.90983 32.7537 6.90983H37.3562C38.0343 6.90983 38.3162 7.77756 37.7676 8.17614L34.0442 10.8814C33.7988 11.0597 33.6962 11.3756 33.7899 11.664L35.2121 16.0412C35.4217 16.6862 34.6835 17.2224 34.1349 16.8239L30.4114 14.1186C30.1661 13.9403 29.8339 13.9403 29.5886 14.1186L25.8651 16.8239C25.3165 17.2224 24.5783 16.6862 24.7879 16.0412L26.2101 11.664C26.3038 11.3756 26.2012 11.0597 25.9558 10.8814L22.2324 8.17614C21.6838 7.77756 21.9657 6.90983 22.6438 6.90983H27.2463C27.5495 6.90983 27.8183 6.71456 27.912 6.42614L29.3343 2.04894Z" fill="#F2B237"/>
  <path d="M69.3343 2.04894C69.5438 1.40402 70.4562 1.40402 70.6657 2.04894L72.088 6.42614C72.1817 6.71456 72.4505 6.90983 72.7537 6.90983H77.3562C78.0343 6.90983 78.3162 7.77756 77.7676 8.17614L74.0442 10.8814C73.7988 11.0597 73.6962 11.3756 73.7899 11.664L75.2121 16.0412C75.4217 16.6862 74.6835 17.2224 74.1349 16.8239L70.4114 14.1186C70.1661 13.9403 69.8339 13.9403 69.5886 14.1186L65.8651 16.8239C65.3165 17.2224 64.5783 16.6862 64.7879 16.0412L66.2101 11.664C66.3038 11.3756 66.2012 11.0597 65.9558 10.8814L62.2324 8.17614C61.6838 7.77756 61.9657 6.90983 62.6438 6.90983H67.2463C67.5495 6.90983 67.8183 6.71456 67.912 6.42614L69.3343 2.04894Z" fill="#F2B237"/>
</svg>