<svg width="82" height="80" viewBox="0 0 82 80" fill="none" xmlns="http://www.w3.org/2000/svg">
<rect x="-0.000976562" y="0.0146484" width="81.773" height="79.372" rx="20.5622" fill="white"/>
<g clip-path="url(#clip0_334_1418)">
<path d="M56.0236 39.1074C55.9572 31.5799 62.078 27.9661 62.3548 27.7899C58.9105 22.6728 53.5502 21.9718 51.6379 21.8893C47.0787 21.4207 42.7373 24.6147 40.4264 24.6147C38.1154 24.6147 34.5418 21.9568 30.7616 22.0318C25.7852 22.1068 21.2039 24.9671 18.6419 29.4881C13.4772 38.5863 17.3239 52.0706 22.352 59.4556C24.8143 63.0657 27.7455 67.133 31.5996 66.9831C35.3134 66.8331 36.7162 64.5464 41.1979 64.5464C45.6796 64.5464 46.9421 66.9831 50.8664 66.9119C54.8571 66.8332 57.3895 63.2231 59.8334 59.6018C62.6539 55.4107 63.8204 51.3545 63.8869 51.1409C63.7983 51.1034 56.1048 48.1081 56.0236 39.1074Z" fill="#222222"/>
<path d="M48.6527 16.7827C50.6979 14.2673 52.0786 10.7697 51.6983 7.28345C48.7521 7.40354 45.186 9.27782 43.0705 11.7932C41.1767 14.0164 39.5154 17.5776 39.9656 20.9928C43.2514 21.2515 46.6071 19.2944 48.6527 16.7827Z" fill="#222222"/>
</g>
<defs>
<clipPath id="clip0_334_1418">
<rect width="49.0638" height="59.529" fill="white" transform="translate(17.3525 7.25946)"/>
</clipPath>
</defs>
</svg>
