<svg width="89" height="87" viewBox="0 0 89 87" fill="none" xmlns="http://www.w3.org/2000/svg">
<path fill-rule="evenodd" clip-rule="evenodd" d="M32.3827 59.5499V40.3674C32.3827 40.1486 32.6086 39.9299 32.8344 39.9299H40.5227C40.7485 39.9299 40.9744 40.1486 40.9744 40.3674V59.5499C40.9744 59.8459 40.6998 60.0303 40.3854 60.0303H32.9717C32.6573 60.0303 32.3827 59.8459 32.3827 59.5499ZM48.4501 0.81842H48.6184C49.0081 0.82271 49.3447 0.861315 49.7875 0.861315C50.0134 0.861315 50.2437 0.857026 50.4696 0.861315C50.7309 0.865605 50.8106 0.908499 51.0984 0.908499C51.3199 0.908499 51.559 0.89992 51.7805 0.90421C52.0152 0.912789 52.0905 0.951394 52.365 0.951394C52.8212 0.951394 53.2154 0.968552 53.6759 0.994289L54.8938 1.08437C55.4829 1.08866 56.7185 1.20447 57.3296 1.26453C60.3589 1.57337 63.4501 1.95513 66.342 2.783C66.7052 2.88595 67.0285 2.96316 67.3916 3.07897C68.3748 3.38782 69.3536 3.70524 70.3013 4.06984C70.939 4.31434 71.5192 4.61461 72.1481 4.8634C72.7415 5.09932 73.2951 5.45105 73.8576 5.75132C74.4422 6.06016 74.9515 6.39474 75.4962 6.74648L77.7548 8.41079C78.366 8.87406 79.916 10.3153 80.4209 10.9502L81.0232 11.6365C82.2234 13.1035 83.2686 14.6134 84.1499 16.3163C85.0755 18.105 85.7796 19.9624 86.3598 21.884C87.2633 24.8781 87.5821 27.4947 87.9807 30.5616L88.4457 38.4328C88.4413 39.0462 88.3837 39.754 88.4502 40.3545C88.5432 41.1524 88.5166 46.1753 88.4457 47.0204C88.3926 47.6509 88.4457 48.3501 88.4457 48.9892C88.4457 49.2595 88.397 49.3281 88.397 49.5983L88.3527 51.5286C88.3527 51.7988 88.304 51.8675 88.304 52.1377C88.304 52.9613 88.18 54.8272 88.0737 55.8095L87.6663 59.314C87.2854 61.9006 86.7584 64.3456 85.9524 66.8034C85.0533 69.5401 83.7026 72.2983 81.9222 74.5931C81.816 74.7347 81.7495 74.8333 81.6388 74.9749C80.9701 75.8285 80.2438 76.6606 79.4599 77.4199C78.783 78.0805 78.072 78.7076 77.3297 79.2987L76.5945 79.8563C75.9479 80.3239 75.2792 80.7914 74.5794 81.1903L73.3128 81.8895C73.1445 81.9753 73.056 82.0354 72.8744 82.1254C70.7353 83.1506 69.8806 83.4423 67.5909 84.193C66.9222 84.4117 66.2225 84.5747 65.5006 84.7506C58.7778 86.3806 50.5626 86.475 42.6839 86.475C35.5581 86.475 28.605 86.1104 22.9141 84.7334C20.7042 84.1973 17.5731 83.2193 15.5049 82.0568C15.3676 81.9796 15.2348 81.9324 15.0842 81.8509C13.109 80.7828 12.4712 80.2638 10.8725 79.0542C10.7795 78.9855 10.7839 78.9941 10.6998 78.9169L9.97345 78.3035C9.225 77.6086 8.30383 76.7507 7.67938 75.97L6.49249 74.4945C5.30116 72.9631 4.38885 71.2259 3.58282 69.4758L3.18867 68.545C3.06467 68.2104 2.95395 67.9487 2.8388 67.6141C2.73251 67.301 2.58637 66.9664 2.49336 66.6361C2.39593 66.2887 2.27193 65.9541 2.17892 65.6281C1.97963 64.9375 1.80691 64.2726 1.63419 63.5692C1.28433 62.1236 1.03632 60.6695 0.810454 59.1124C0.673164 58.173 0.318867 55.2948 0.314438 54.3811C0.31001 53.416 0.163862 52.2535 0.132861 51.2712C0.128433 51.0568 0.13729 50.8294 0.13729 50.6107C0.13729 50.3404 0.0885745 50.2718 0.0885745 50.0016L0.0442872 45.489C0.0442872 45.0558 0 44.7341 0 44.2622C0 42.5078 0.0531447 40.8392 0.0442872 39.0505C0.0442872 38.7717 0.0885742 38.6945 0.0930029 38.4414C0.10186 37.5878 0.155005 34.7782 0.261294 34.049C0.345439 33.4613 0.323296 32.3332 0.434014 31.5911C0.496016 31.1922 0.509302 30.7804 0.54916 30.3858C0.881313 27.0657 1.47919 23.6942 2.55094 20.5886C3.21081 18.6712 3.99912 16.8825 5.00887 15.1281L6.03633 13.5367C6.58106 12.7475 7.17451 12.0268 7.7901 11.2933L8.72013 10.2681C9.13643 9.80916 9.66344 9.40166 10.0975 8.977C11.0762 8.01616 13.233 6.55774 14.3579 5.91861C18.2729 3.69237 21.9841 2.69721 26.3862 1.89079C27.7326 1.642 30.3809 1.29026 31.7494 1.21734C32.3871 1.18303 32.9894 1.08866 33.6493 1.08437C34.2693 1.08008 35.3145 0.951394 36.1825 0.951394C36.4704 0.951394 36.5501 0.908499 36.8114 0.90421C37.0373 0.89992 37.2676 0.908499 37.4934 0.908499C37.7547 0.90421 37.8345 0.861315 38.1223 0.861315L48.4501 0.81842ZM62.2721 59.507V27.8421C62.2721 27.5419 62.4802 27.2716 62.7681 27.2716H70.0489C70.3367 27.2716 70.5449 27.5419 70.5449 27.8421V59.507C70.5449 59.8202 70.2526 60.0346 69.9116 60.0346H62.9009C62.5599 60.0346 62.2676 59.8202 62.2676 59.507H62.2721ZM25.2392 60.0346H18.1843C17.8698 60.0346 17.5953 59.8502 17.5953 59.5542V27.7563C17.5953 27.499 17.83 27.2759 18.0913 27.2759C25.6555 27.2759 33.3305 27.3188 40.8814 27.2759L42.3739 27.3188C42.6175 27.3231 42.6396 27.3574 42.8699 27.366L44.7787 27.4904C45.1241 27.5247 45.4031 27.5504 45.722 27.5848C46.311 27.6491 46.9487 27.7435 47.5112 27.8679C51.0851 28.6443 53.1401 29.7209 54.5085 33.0924C55.6511 35.902 55.7619 40.6462 55.7619 43.8805V59.5156C55.7619 59.8287 55.4696 60.0432 55.1286 60.0432H48.1179C47.3207 60.0432 47.4846 59.2582 47.4846 58.5119V43.4472C47.4846 41.2896 47.5378 37.9353 46.1339 36.1251C44.7477 34.3364 41.6963 34.0747 39.3446 34.0747H26.4571C25.7574 34.0747 25.8238 34.7182 25.8238 35.1257C25.8282 37.7851 25.8814 59.4813 25.8017 59.7172C25.7707 59.8073 25.6688 59.9188 25.5979 59.9574C25.5138 60.0046 25.3765 60.0432 25.2348 60.0432L25.2392 60.0346Z" fill="#FF6900"/>
</svg>
