<svg width="218" height="162" viewBox="0 0 218 162" fill="none" xmlns="http://www.w3.org/2000/svg">
<ellipse cx="112.222" cy="81" rx="81.3673" ry="81" fill="url(#paint0_linear_1356_1655)"/>
<rect x="0.208597" y="0.674255" width="80.2875" height="92.365" rx="9.5" transform="matrix(0.885375 0.464877 -0.46818 0.883633 126.485 23.7757)" fill="white" stroke="black"/>
<rect width="66.508" height="57.3294" rx="5" transform="matrix(0.885375 0.464877 -0.46818 0.883633 128.854 34.4663)" fill="#F3F3F3"/>
<rect width="45.1597" height="11.4659" rx="5" transform="matrix(0.885375 0.464877 -0.46818 0.883633 100.096 88.7429)" fill="#F3F3F3"/>
<rect x="53.4541" y="14.5" width="98.449" height="113" rx="9.5" fill="white" stroke="black"/>
<rect x="61.9951" y="24" width="81.3673" height="70" rx="5" fill="#F3F3F3"/>
<rect x="61.9951" y="99" width="55.2494" height="14" rx="5" fill="#F3F3F3"/>
<path d="M161.34 24.9069L161.766 25.168L161.34 24.9069C160.549 26.1923 159.339 27.5828 157.69 29.0773C156.043 30.5711 153.873 32.2486 151.174 34.1102C148.474 35.9729 145.065 38.181 140.945 40.7349L139.457 41.6542L138.484 40.2066C138.484 40.2063 138.484 40.2061 138.483 40.2058C135.818 36.1911 133.636 32.7789 131.936 29.9681C130.238 27.1604 128.951 24.7393 128.071 22.702C127.19 20.6632 126.665 18.899 126.479 17.4033L125.982 17.4659L126.479 17.4033C126.291 15.8985 126.351 14.4435 126.657 13.0357C127.242 10.3435 128.582 8.29324 130.674 6.84974C132.765 5.40752 135.044 4.95768 137.547 5.49628C139.275 5.86838 140.794 6.68667 142.111 7.96079C143.429 9.23615 144.477 10.9134 145.246 13.0104L145.517 13.7509L146.072 13.1882C147.642 11.5945 149.293 10.4983 151.022 9.87884C152.75 9.26001 154.473 9.13954 156.202 9.51163C158.704 10.0502 160.593 11.3973 161.898 13.5705C163.205 15.7456 163.574 18.1637 162.99 20.856C162.684 22.2638 162.135 23.6136 161.34 24.9069Z" fill="#FF608F" stroke="black"/>
<path d="M152.403 13.6465V13.6465C156.63 12.659 160.427 16.4384 159.435 20.6465V20.6465" stroke="white" stroke-width="2"/>
<path d="M182.538 34C182.582 36.7433 184.818 38.9568 187.561 39C184.818 39.0432 182.582 41.2567 182.538 44C182.495 41.2567 180.259 39.0432 177.516 39C180.259 38.9568 182.495 36.7433 182.538 34Z" fill="#BD10E0"/>
<path d="M39.8947 108C39.9383 110.743 42.1741 112.957 44.9174 113C42.1741 113.043 39.9383 115.257 39.8947 118C39.8512 115.257 37.6153 113.043 34.8721 113C37.6153 112.957 39.8512 110.743 39.8947 108Z" fill="#7EFF21"/>
<path d="M184.631 118.66L188.427 111.609L195.51 115.387" stroke="#FD7685"/>
<path d="M194.907 115.676L198.702 108.625L205.786 112.403" stroke="#FD7685"/>
<path d="M205.359 112.063L209.214 105.214L216.297 108.993" stroke="#FD7685"/>
<path d="M19.9667 48.3201L27.0098 45.5522L28.8526 52.8441" stroke="#F5A623"/>
<path d="M28.2899 52.6724L35.333 49.9045L37.1759 57.1964" stroke="#F5A623"/>
<path d="M37.1387 56.6742L44.0828 54.0931L45.9257 61.3849" stroke="#F5A623"/>
<path d="M2.6174 39.8045L9.7207 37.0681L11.6249 44.3921" stroke="#F5A623"/>
<path d="M11.5836 43.8677L18.5879 41.318L20.4921 48.642" stroke="#F5A623"/>
<defs>
<linearGradient id="paint0_linear_1356_1655" x1="122.769" y1="-75" x2="112.317" y2="124.005" gradientUnits="userSpaceOnUse">
<stop stop-color="#D9D9D9"/>
<stop offset="1" stop-color="#D9D9D9" stop-opacity="0"/>
</linearGradient>
</defs>
</svg>
