<svg width="16" height="24" viewBox="0 0 16 24" fill="none" xmlns="http://www.w3.org/2000/svg">
<path d="M2.03224 24C1.46934 24 0.989908 23.8112 0.593932 23.4335C0.197977 23.0558 0 22.5984 0 22.0616V1.93845C0 1.40153 0.197977 0.944219 0.593932 0.566519C0.989908 0.188839 1.46934 0 2.03224 0H13.0645C13.6274 0 14.1069 0.188839 14.5028 0.566519C14.8988 0.944219 15.0968 1.40153 15.0968 1.93845V5.90769H13.8387V4.2H1.25806V19.8H13.8387V18.0923H15.0968V22.0616C15.0968 22.5985 14.8988 23.0558 14.5028 23.4334C14.1069 23.8111 13.6274 24 13.0645 24H2.03224ZM1.25806 21V22.0616C1.25806 22.2462 1.33871 22.4154 1.49999 22.5692C1.66129 22.7231 1.83871 22.8 2.03224 22.8H13.0645C13.2581 22.8 13.4355 22.7231 13.5968 22.5692C13.7581 22.4154 13.8387 22.2462 13.8387 22.0616V21H1.25806ZM1.25806 3H13.8387V1.93845C13.8387 1.75385 13.7581 1.58462 13.5968 1.43076C13.4355 1.27692 13.2581 1.2 13.0645 1.2H2.03224C1.83871 1.2 1.66129 1.27692 1.49999 1.43076C1.33871 1.58462 1.25806 1.75385 1.25806 1.93845V3Z" fill="#576470"/>
<path d="M4.516 9.196C4.516 8.684 4.672 8.272 4.984 7.96C5.304 7.64 5.708 7.48 6.196 7.48C6.692 7.48 7.096 7.64 7.408 7.96C7.728 8.272 7.888 8.684 7.888 9.196C7.888 9.716 7.728 10.136 7.408 10.456C7.096 10.768 6.692 10.924 6.196 10.924C5.708 10.924 5.304 10.768 4.984 10.456C4.672 10.136 4.516 9.716 4.516 9.196ZM11.236 7.6L6.316 16H5.464L10.396 7.6H11.236ZM6.196 8.02C5.892 8.02 5.648 8.124 5.464 8.332C5.288 8.532 5.2 8.82 5.2 9.196C5.2 9.572 5.288 9.864 5.464 10.072C5.648 10.28 5.892 10.384 6.196 10.384C6.5 10.384 6.744 10.28 6.928 10.072C7.112 9.864 7.204 9.572 7.204 9.196C7.204 8.828 7.112 8.54 6.928 8.332C6.744 8.124 6.5 8.02 6.196 8.02ZM8.836 14.404C8.836 13.884 8.992 13.468 9.304 13.156C9.624 12.836 10.028 12.676 10.516 12.676C11.004 12.676 11.404 12.836 11.716 13.156C12.036 13.468 12.196 13.884 12.196 14.404C12.196 14.924 12.036 15.344 11.716 15.664C11.404 15.976 11.004 16.132 10.516 16.132C10.028 16.132 9.624 15.976 9.304 15.664C8.992 15.344 8.836 14.924 8.836 14.404ZM10.516 13.228C10.212 13.228 9.968 13.332 9.784 13.54C9.6 13.748 9.508 14.036 9.508 14.404C9.508 14.772 9.6 15.06 9.784 15.268C9.968 15.476 10.212 15.58 10.516 15.58C10.82 15.58 11.06 15.48 11.236 15.28C11.42 15.072 11.512 14.78 11.512 14.404C11.512 14.028 11.42 13.74 11.236 13.54C11.06 13.332 10.82 13.228 10.516 13.228Z" fill="#576470"/>
</svg>
