<svg xmlns="http://www.w3.org/2000/svg" width="50" height="49" viewBox="0 0 50 49" fill="none">
  <path d="M48.4306 24.5C48.4306 37.5972 37.7844 48.2181 24.6473 48.2181C11.5101 48.2181 0.863946 37.5972 0.863946 24.5C0.863946 11.4028 11.5101 0.781915 24.6473 0.781915C37.7844 0.781915 48.4306 11.4028 48.4306 24.5Z" fill="white" stroke="#17AEC9" stroke-width="1.56383"/>
  <path d="M12.625 34.4046V31.1206C12.625 30.456 12.7913 29.8451 13.1239 29.288C13.4565 28.7309 13.8984 28.3057 14.4496 28.0125C15.6279 27.4065 16.8253 26.952 18.0417 26.649C19.2581 26.346 20.4935 26.1945 21.7479 26.1945C23.0023 26.1945 24.2377 26.346 25.454 26.649C26.6704 26.952 27.8678 27.4065 29.0462 28.0125C29.5974 28.3057 30.0392 28.7309 30.3718 29.288C30.7045 29.8451 30.8708 30.456 30.8708 31.1206V34.4046H12.625ZM33.1515 34.4046V30.886C33.1515 30.0259 32.9187 29.2 32.453 28.4083C31.9874 27.6166 31.3269 26.9373 30.4716 26.3705C31.4409 26.4877 32.3532 26.6881 33.2085 26.9716C34.0638 27.255 34.862 27.602 35.6033 28.0125C36.2875 28.4034 36.8101 28.8384 37.1712 29.3173C37.5324 29.7962 37.7129 30.3191 37.7129 30.886V34.4046H33.1515ZM21.7479 25.0217C20.4935 25.0217 19.4196 24.5623 18.5264 23.6435C17.6331 22.7248 17.1864 21.6203 17.1864 20.3302C17.1864 19.04 17.6331 17.9355 18.5264 17.0168C19.4196 16.098 20.4935 15.6387 21.7479 15.6387C23.0023 15.6387 24.0761 16.098 24.9694 17.0168C25.8627 17.9355 26.3093 19.04 26.3093 20.3302C26.3093 21.6203 25.8627 22.7248 24.9694 23.6435C24.0761 24.5623 23.0023 25.0217 21.7479 25.0217ZM33.1515 20.3302C33.1515 21.6203 32.7048 22.7248 31.8116 23.6435C30.9183 24.5623 29.8444 25.0217 28.59 25.0217C28.381 25.0217 28.1149 24.9972 27.7918 24.9483C27.4687 24.8995 27.2026 24.8457 26.9935 24.7871C27.5067 24.1615 27.9011 23.4676 28.1767 22.7052C28.4522 21.9429 28.59 21.1512 28.59 20.3302C28.59 19.5092 28.4522 18.7175 28.1767 17.9551C27.9011 17.1927 27.5067 16.4988 26.9935 15.8732C27.2596 15.7755 27.5257 15.712 27.7918 15.6827C28.0579 15.6533 28.324 15.6387 28.59 15.6387C29.8444 15.6387 30.9183 16.098 31.8116 17.0168C32.7048 17.9355 33.1515 19.04 33.1515 20.3302ZM14.9057 32.0589H28.59V31.1206C28.59 30.9056 28.5378 30.7101 28.4332 30.5342C28.3287 30.3582 28.1909 30.2214 28.0199 30.1236C26.9935 29.5959 25.9577 29.2 24.9124 28.9361C23.867 28.6722 22.8122 28.5403 21.7479 28.5403C20.6835 28.5403 19.6287 28.6722 18.5834 28.9361C17.5381 29.2 16.5022 29.5959 15.4759 30.1236C15.3048 30.2214 15.1671 30.3582 15.0625 30.5342C14.958 30.7101 14.9057 30.9056 14.9057 31.1206V32.0589ZM21.7479 22.6759C22.3751 22.6759 22.912 22.4462 23.3586 21.9868C23.8053 21.5275 24.0286 20.9752 24.0286 20.3302C24.0286 19.6851 23.8053 19.1329 23.3586 18.6735C22.912 18.2141 22.3751 17.9844 21.7479 17.9844C21.1207 17.9844 20.5838 18.2141 20.1371 18.6735C19.6905 19.1329 19.4672 19.6851 19.4672 20.3302C19.4672 20.9752 19.6905 21.5275 20.1371 21.9868C20.5838 22.4462 21.1207 22.6759 21.7479 22.6759Z" fill="#17AEC9"/>
</svg>