<svg width="152" height="44" viewBox="0 0 152 44" fill="none" xmlns="http://www.w3.org/2000/svg">
<g clip-path="url(#clip0_26_251)">
<path d="M-1 2H149V43H-1V2Z" fill="#FFC915"/>
<path d="M61.0415 12.4577C63.3785 12.4577 65.6326 13.2151 67.3397 14.5555V12.7631H70.5427V32.2698H67.3397V30.4853C65.6616 31.8177 63.4075 32.5711 61.0415 32.5711C58.141 32.5711 55.5016 31.5441 53.6121 29.6802C51.7392 27.8402 50.7116 25.3022 50.7116 22.5303C50.7116 19.7544 51.7434 17.2085 53.6121 15.3605C55.5057 13.4888 58.1452 12.4577 61.0415 12.4577ZM38.8693 12.3863C41.4922 12.3863 43.8706 13.3024 45.5736 14.9719C47.3843 16.7485 48.3498 19.2428 48.3705 22.1932V23.1965H31.875C32.0739 26.8607 34.9951 29.5811 38.7948 29.5811C41.5212 29.5811 43.4728 28.4668 44.9397 26.0755L45.1178 25.786L47.894 27.4952L47.7324 27.7609C45.8512 30.858 42.7601 32.4958 38.7906 32.4958C32.8032 32.4958 28.6223 28.3676 28.6223 22.4589C28.6223 16.6216 32.9316 12.3863 38.8693 12.3863ZM124.073 12.3863C126.696 12.3863 129.075 13.3024 130.778 14.9719C132.588 16.7485 133.554 19.2428 133.574 22.1932V23.1965H117.079C117.278 26.8607 120.199 29.5811 123.999 29.5811C126.725 29.5811 128.677 28.4668 130.144 26.0755L130.322 25.786L133.098 27.4952L132.936 27.7609C131.055 30.858 127.964 32.4958 123.995 32.4958C118.007 32.4958 113.826 28.3676 113.822 22.4589C113.822 16.6216 118.136 12.3863 124.073 12.3863ZM27.3875 12.7234V15.6381H18.106V32.2658H14.8657V12.7234H27.3875ZM103.538 12.4577C108.179 12.4577 111.063 15.5073 111.063 20.4166V32.2301H107.822V20.4166C107.822 17.3512 105.987 15.3724 103.144 15.3724C99.4896 15.3724 98.1885 17.7835 98.1885 20.0399V32.2341H94.9482V20.4206C94.9482 17.3076 93.1706 15.3764 90.3074 15.3764C87.9498 15.3764 85.4305 17.1292 85.4305 19.7385V32.2222H82.1902V12.7195H85.4305V14.611C86.7688 13.2151 88.6749 12.4577 90.9 12.4577C94.1941 12.4577 95.9965 14.0519 96.9661 15.5628C98.4412 13.5839 100.803 12.4577 103.538 12.4577ZM77.9845 6.96539V32.2301H74.7442V6.96539H77.9845ZM60.8799 15.5628C56.9311 15.5628 53.9519 18.5608 53.9519 22.5343C53.9519 26.4879 56.9311 29.4661 60.8799 29.4701C64.9779 29.4701 67.7292 26.6823 67.7292 22.5343C67.7292 18.3664 64.9779 15.5628 60.8799 15.5628ZM38.7948 15.2971C35.5296 15.2971 32.8032 17.375 32.0242 20.3968H45.0764C44.5046 17.3314 42.0267 15.2971 38.7948 15.2971ZM123.995 15.2971C120.729 15.2971 118.003 17.375 117.224 20.3968H130.276C129.704 17.3314 127.227 15.2971 123.995 15.2971Z" fill="#111111"/>
</g>
<defs>
<clipPath id="clip0_26_251">
<rect width="151.54" height="42.8283" fill="white" transform="translate(-0.00341797 0.363525)"/>
</clipPath>
</defs>
</svg>
