<svg width="24" height="24" viewBox="0 0 24 24" fill="none" xmlns="http://www.w3.org/2000/svg">
<path d="M11.9479 24C8.88267 24 6.21439 23.0005 3.94301 21.0015C1.67163 19.0024 0.357296 16.5019 0 13.5H1.52388C1.93335 16.0808 3.11781 18.226 5.07727 19.9356C7.03672 21.6452 9.32692 22.5 11.9479 22.5C14.8856 22.5 17.3776 21.4813 19.424 19.4438C21.4703 17.4062 22.4935 14.925 22.4935 12C22.4935 9.075 21.4703 6.59375 19.424 4.55625C17.3776 2.51875 14.8856 1.5 11.9479 1.5C10.3892 1.5 8.92419 1.82789 7.55285 2.48366C6.18155 3.13944 4.97151 4.04232 3.92275 5.19232H7.66004V6.69232H1.40219V0.461549H2.90871V4.04423C4.07337 2.77115 5.43842 1.77884 7.00384 1.06729C8.56926 0.355762 10.2173 0 11.9479 0C13.62 0 15.1863 0.312976 16.6467 0.938926C18.1071 1.5649 19.3834 2.42164 20.4756 3.50914C21.5678 4.59664 22.4283 5.86724 23.057 7.32094C23.6857 8.77466 24 10.3338 24 11.9984C24 13.6629 23.6857 15.2226 23.057 16.6774C22.4283 18.1322 21.5678 19.4034 20.4756 20.4909C19.3834 21.5784 18.1071 22.4351 16.6467 23.0611C15.1863 23.687 13.62 24 11.9479 24Z" fill="#576470"/>
<path d="M14.636 9.468V9.664H16.26V10.812H14.552C14.4493 11.4373 14.2533 11.9367 13.964 12.31C13.684 12.674 13.2827 12.94 12.76 13.108C12.2373 13.2667 11.5607 13.346 10.73 13.346V14.228C10.73 14.7413 10.8373 15.1473 11.052 15.446C11.276 15.7447 11.6493 15.894 12.172 15.894C13.124 15.894 13.6 15.3573 13.6 14.284H15.07C15.0607 15.2267 14.804 15.9407 14.3 16.426C13.8053 16.902 13.0867 17.14 12.144 17.14C11.2013 17.14 10.478 16.8787 9.974 16.356C9.47933 15.8333 9.232 15.1007 9.232 14.158V12.24C10.268 12.24 11.0287 12.212 11.514 12.156C11.9993 12.0907 12.3587 11.96 12.592 11.764C12.8347 11.568 12.9933 11.2507 13.068 10.812H8.644V9.664H13.138V9.468V8.418H8.644V7.256H16.26V8.418H14.636V9.468Z" fill="#576470"/>
</svg>
