<svg width="94" height="18" viewBox="0 0 94 18" fill="none" xmlns="http://www.w3.org/2000/svg">
<path d="M8.71468 0.878116C8.80449 0.601723 9.19551 0.601722 9.28532 0.878115L10.9533 6.01155C10.9934 6.13516 11.1086 6.21885 11.2386 6.21885H16.6362C16.9268 6.21885 17.0477 6.59073 16.8125 6.76155L12.4458 9.93419C12.3406 10.0106 12.2966 10.146 12.3368 10.2696L14.0048 15.403C14.0946 15.6794 13.7782 15.9093 13.5431 15.7384L9.17634 12.5658C9.07119 12.4894 8.92881 12.4894 8.82366 12.5658L4.4569 15.7384C4.22179 15.9093 3.90544 15.6794 3.99525 15.403L5.6632 10.2696C5.70337 10.146 5.65937 10.0106 5.55422 9.93419L1.18746 6.76155C0.952347 6.59073 1.07318 6.21885 1.3638 6.21885H6.76141C6.89138 6.21885 7.00657 6.13516 7.04673 6.01155L8.71468 0.878116Z" fill="#EAD200"/>
<path d="M27.7147 0.878116C27.8045 0.601723 28.1955 0.601722 28.2853 0.878115L29.9533 6.01155C29.9934 6.13516 30.1086 6.21885 30.2386 6.21885H35.6362C35.9268 6.21885 36.0477 6.59073 35.8125 6.76155L31.4458 9.93419C31.3406 10.0106 31.2966 10.146 31.3368 10.2696L33.0048 15.403C33.0946 15.6794 32.7782 15.9093 32.5431 15.7384L28.1763 12.5658C28.0712 12.4894 27.9288 12.4894 27.8237 12.5658L23.4569 15.7384C23.2218 15.9093 22.9054 15.6794 22.9952 15.403L24.6632 10.2696C24.7034 10.146 24.6594 10.0106 24.5542 9.93419L20.1875 6.76155C19.9523 6.59073 20.0732 6.21885 20.3638 6.21885H25.7614C25.8914 6.21885 26.0066 6.13516 26.0467 6.01155L27.7147 0.878116Z" fill="#EAD200"/>
<path d="M46.7147 0.878116C46.8045 0.601723 47.1955 0.601722 47.2853 0.878115L48.9533 6.01155C48.9934 6.13516 49.1086 6.21885 49.2386 6.21885H54.6362C54.9268 6.21885 55.0477 6.59073 54.8125 6.76155L50.4458 9.93419C50.3406 10.0106 50.2966 10.146 50.3368 10.2696L52.0048 15.403C52.0946 15.6794 51.7782 15.9093 51.5431 15.7384L47.1763 12.5658C47.0712 12.4894 46.9288 12.4894 46.8237 12.5658L42.4569 15.7384C42.2218 15.9093 41.9054 15.6794 41.9952 15.403L43.6632 10.2696C43.7034 10.146 43.6594 10.0106 43.5542 9.93419L39.1875 6.76155C38.9523 6.59073 39.0732 6.21885 39.3638 6.21885H44.7614C44.8914 6.21885 45.0066 6.13516 45.0467 6.01155L46.7147 0.878116Z" fill="#EAD200"/>
<path d="M65.7147 0.878116C65.8045 0.601723 66.1955 0.601722 66.2853 0.878115L67.9533 6.01155C67.9934 6.13516 68.1086 6.21885 68.2386 6.21885H73.6362C73.9268 6.21885 74.0477 6.59073 73.8125 6.76155L69.4458 9.93419C69.3406 10.0106 69.2966 10.146 69.3368 10.2696L71.0048 15.403C71.0946 15.6794 70.7782 15.9093 70.5431 15.7384L66.1763 12.5658C66.0712 12.4894 65.9288 12.4894 65.8237 12.5658L61.4569 15.7384C61.2218 15.9093 60.9054 15.6794 60.9952 15.403L62.6632 10.2696C62.7034 10.146 62.6594 10.0106 62.5542 9.93419L58.1875 6.76155C57.9523 6.59073 58.0732 6.21885 58.3638 6.21885H63.7614C63.8914 6.21885 64.0066 6.13516 64.0467 6.01155L65.7147 0.878116Z" fill="#EAD200"/>
<path d="M84.7147 0.878116C84.8045 0.601723 85.1955 0.601722 85.2853 0.878115L86.9533 6.01155C86.9934 6.13516 87.1086 6.21885 87.2386 6.21885H92.6362C92.9268 6.21885 93.0477 6.59073 92.8125 6.76155L88.4458 9.93419C88.3406 10.0106 88.2966 10.146 88.3368 10.2696L90.0048 15.403C90.0946 15.6794 89.7782 15.9093 89.5431 15.7384L85.1763 12.5658C85.0712 12.4894 84.9288 12.4894 84.8237 12.5658L80.4569 15.7384C80.2218 15.9093 79.9054 15.6794 79.9952 15.403L81.6632 10.2696C81.7034 10.146 81.6594 10.0106 81.5542 9.93419L77.1875 6.76155C76.9523 6.59073 77.0732 6.21885 77.3638 6.21885H82.7614C82.8914 6.21885 83.0066 6.13516 83.0467 6.01155L84.7147 0.878116Z" fill="#EAD200"/>
</svg>
