<svg width="22" height="22" viewBox="0 0 22 22" fill="none" xmlns="http://www.w3.org/2000/svg">
<path d="M14.4465 2.91727L15.5106 3.04407L15.2455 5.7357L19.3486 1.92326L20.2667 2.8593L15.9189 6.56959L18.5744 6.83826L18.4867 7.9206L13.9985 7.46651L14.4465 2.91727Z" fill="#4D4D4D"/>
<path d="M13.371 13.387C13.371 13.8377 13.254 14.2623 13.02 14.661C12.7947 15.051 12.4567 15.376 12.006 15.636C11.564 15.8873 11.0397 16.0347 10.433 16.078V17.131H9.601V16.065C8.73433 15.987 8.03667 15.727 7.508 15.285C6.97933 14.8343 6.70633 14.2277 6.689 13.465H8.639C8.691 14.089 9.01167 14.466 9.601 14.596V12.113C8.977 11.957 8.47433 11.801 8.093 11.645C7.71167 11.489 7.38233 11.2377 7.105 10.891C6.82767 10.5443 6.689 10.072 6.689 9.474C6.689 8.72 6.95767 8.10467 7.495 7.628C8.041 7.15133 8.743 6.87833 9.601 6.809V5.756H10.433V6.809C11.265 6.87833 11.928 7.12967 12.422 7.563C12.9247 7.99633 13.2063 8.59433 13.267 9.357H11.304C11.278 9.10567 11.187 8.889 11.031 8.707C10.8837 8.51633 10.6843 8.382 10.433 8.304V10.761C11.083 10.9257 11.5943 11.086 11.967 11.242C12.3483 11.3893 12.6777 11.6363 12.955 11.983C13.2323 12.321 13.371 12.789 13.371 13.387ZM8.587 9.383C8.587 9.669 8.67367 9.903 8.847 10.085C9.02033 10.2583 9.27167 10.4013 9.601 10.514V8.265C9.289 8.30833 9.042 8.42533 8.86 8.616C8.678 8.80667 8.587 9.06233 8.587 9.383ZM10.433 14.622C10.7623 14.5613 11.018 14.427 11.2 14.219C11.3907 14.011 11.486 13.7597 11.486 13.465C11.486 13.179 11.395 12.9493 11.213 12.776C11.031 12.6027 10.771 12.4597 10.433 12.347V14.622Z" fill="#4D4D4D"/>
<path d="M19.1198 11.7801C19.1095 13.612 18.5563 15.3972 17.5337 16.9041C16.5113 18.4107 15.0675 19.5688 13.3914 20.2306C11.7155 20.8924 9.88293 21.0282 8.13063 20.621C6.3782 20.2138 4.78461 19.2817 3.55764 17.9431C2.3305 16.6042 1.52698 14.9206 1.25369 13.1099C0.980385 11.2992 1.25036 9.44749 2.02763 7.79551C2.80481 6.14368 4.05253 4.76928 5.60656 3.84852C7.16039 2.92787 8.94979 2.5025 10.743 2.62599" stroke="#4D4D4D" stroke-width="2.3"/>
</svg>
