<svg width="16" height="16" viewBox="0 0 16 16" fill="none" xmlns="http://www.w3.org/2000/svg">
<circle cx="8" cy="8" r="8" fill="black" fill-opacity="0.8"/>
<path d="M7.294 13.815L7.515 5.57H9.13L9.351 13.815H7.294ZM8.263 1.881C8.61433 1.881 8.909 2 9.147 2.238C9.385 2.476 9.504 2.77067 9.504 3.122C9.504 3.47333 9.385 3.768 9.147 4.006C8.909 4.244 8.61433 4.363 8.263 4.363C7.923 4.363 7.634 4.244 7.396 4.006C7.158 3.768 7.039 3.47333 7.039 3.122C7.039 2.77067 7.158 2.476 7.396 2.238C7.634 2 7.923 1.881 8.263 1.881Z" fill="white"/>
</svg>
