<svg width="18" height="19" viewBox="0 0 18 19" fill="none" xmlns="http://www.w3.org/2000/svg">
<path d="M2 16.8889H3.425L13.2 6.57083L11.775 5.06667L2 15.3847V16.8889ZM0 19V14.5139L13.2 0.606944C13.4 0.413426 13.6208 0.263889 13.8625 0.158333C14.1042 0.0527778 14.3583 0 14.625 0C14.8917 0 15.15 0.0527778 15.4 0.158333C15.65 0.263889 15.8667 0.422222 16.05 0.633333L17.425 2.11111C17.625 2.30463 17.7708 2.53333 17.8625 2.79722C17.9542 3.06111 18 3.325 18 3.58889C18 3.87037 17.9542 4.13866 17.8625 4.39375C17.7708 4.64884 17.625 4.88194 17.425 5.09306L4.25 19H0ZM12.475 5.83194L11.775 5.06667L13.2 6.57083L12.475 5.83194Z" fill="#000AFF" fill-opacity="0.78"/>
</svg>
