<svg width="27" height="24" viewBox="0 0 27 24" fill="none" xmlns="http://www.w3.org/2000/svg">
<path d="M13.0261 0.408178C13.1789 -0.0458565 13.8211 -0.0458556 13.9739 0.408179L16.6409 8.33324C16.7093 8.53671 16.9001 8.67376 17.1147 8.67376H25.7069C26.1955 8.67376 26.394 9.3025 25.994 9.58309L19.0734 14.4379C18.892 14.5651 18.8159 14.7966 18.8866 15.0067L21.5371 22.8828C21.6911 23.3404 21.1714 23.7289 20.7761 23.4516L13.7871 18.549C13.6148 18.4281 13.3852 18.4281 13.2129 18.549L6.22388 23.4516C5.82863 23.7289 5.30886 23.3404 5.46285 22.8828L8.11337 15.0067C8.18406 14.7966 8.10805 14.5651 7.92663 14.4379L1.00596 9.58309C0.605967 9.3025 0.804504 8.67376 1.2931 8.67376H9.88525C10.0999 8.67376 10.2907 8.53671 10.3591 8.33324L13.0261 0.408178Z" fill="black" fill-opacity="0.7"/>
</svg>
