<svg xmlns="http://www.w3.org/2000/svg" width="14" height="16" viewBox="0 0 14 16" fill="none">
  <path d="M1.4887 16C1.0727 16 0.72059 15.8535 0.432354 15.5606C0.144118 15.2676 0 14.9097 0 14.4869V3.28371C0 2.8609 0.144118 2.50302 0.432354 2.21006C0.72059 1.9171 1.0727 1.77062 1.4887 1.77062H1.74367C2.23261 1.77062 2.62898 1.37425 2.62898 0.88531V0.63347C2.62898 0.283614 2.9126 0 3.26245 0C3.61231 0 3.89592 0.283614 3.89592 0.633471V0.885311C3.89592 1.37425 4.29229 1.77062 4.78123 1.77062H9.25043C9.73937 1.77062 10.1357 1.37425 10.1357 0.88531V0.617639C10.1357 0.276526 10.4123 0 10.7534 0C11.0945 0 11.371 0.276527 11.371 0.617639V0.885311C11.371 1.37425 11.7674 1.77062 12.2563 1.77062H12.5113C12.9273 1.77062 13.2794 1.9171 13.5676 2.21006C13.8559 2.50302 14 2.8609 14 3.28371V14.4869C14 14.9097 13.8559 15.2676 13.5676 15.5606C13.2794 15.8535 12.9273 16 12.5113 16H1.4887ZM1.4887 14.7445H12.5113C12.5747 14.7445 12.6327 14.7177 12.6855 14.664C12.7383 14.6103 12.7647 14.5513 12.7647 14.4869V11.6318C12.7647 8.87038 10.5261 6.63181 7.76472 6.63181H6.23528C3.47385 6.63181 1.23528 8.87039 1.23528 11.6318V14.4869C1.23528 14.5513 1.26167 14.6103 1.31446 14.664C1.36726 14.7177 1.42534 14.7445 1.4887 14.7445ZM1.23528 5.37629H10.6721C11.8278 5.37629 12.7647 4.43941 12.7647 3.28371C12.7647 3.21932 12.7383 3.16028 12.6855 3.10662C12.6327 3.05296 12.5747 3.02614 12.5113 3.02614H1.4887C1.42534 3.02614 1.36726 3.05296 1.31446 3.10662C1.26167 3.16028 1.23528 3.21932 1.23528 3.28371V5.37629ZM7 9.78672C6.79834 9.78672 6.62651 9.71456 6.48451 9.57023C6.3425 9.4259 6.2715 9.25125 6.2715 9.04629C6.2715 8.84133 6.3425 8.66669 6.48451 8.52236C6.62651 8.37802 6.79834 8.30586 7 8.30586C7.20165 8.30586 7.37348 8.37802 7.51549 8.52236C7.65749 8.66669 7.72849 8.84133 7.72849 9.04629C7.72849 9.25125 7.65749 9.4259 7.51549 9.57023C7.37348 9.71456 7.20165 9.78672 7 9.78672ZM3.70587 9.78672C3.50422 9.78672 3.33239 9.71456 3.19038 9.57023C3.04838 9.4259 2.97738 9.25125 2.97738 9.04629C2.97738 8.84133 3.04838 8.66669 3.19038 8.52236C3.33239 8.37802 3.50422 8.30586 3.70587 8.30586C3.90753 8.30586 4.07936 8.37802 4.22136 8.52236C4.36337 8.66669 4.43437 8.84133 4.43437 9.04629C4.43437 9.25125 4.36337 9.4259 4.22136 9.57023C4.07936 9.71456 3.90753 9.78672 3.70587 9.78672ZM10.2941 9.78672C10.0925 9.78672 9.92064 9.71456 9.77864 9.57023C9.63663 9.4259 9.56563 9.25125 9.56563 9.04629C9.56563 8.84133 9.63663 8.66669 9.77864 8.52236C9.92064 8.37802 10.0925 8.30586 10.2941 8.30586C10.4958 8.30586 10.6676 8.37802 10.8096 8.52236C10.9516 8.66669 11.0226 8.84133 11.0226 9.04629C11.0226 9.25125 10.9516 9.4259 10.8096 9.57023C10.6676 9.71456 10.4958 9.78672 10.2941 9.78672ZM7 13.0704C6.79834 13.0704 6.62651 12.9983 6.48451 12.8539C6.3425 12.7096 6.2715 12.535 6.2715 12.33C6.2715 12.125 6.3425 11.9504 6.48451 11.8061C6.62651 11.6617 6.79834 11.5895 7 11.5895C7.20165 11.5895 7.37348 11.6617 7.51549 11.8061C7.65749 11.9504 7.72849 12.125 7.72849 12.33C7.72849 12.535 7.65749 12.7096 7.51549 12.8539C7.37348 12.9983 7.20165 13.0704 7 13.0704ZM3.70587 13.0704C3.50422 13.0704 3.33239 12.9983 3.19038 12.8539C3.04838 12.7096 2.97738 12.535 2.97738 12.33C2.97738 12.125 3.04838 11.9504 3.19038 11.8061C3.33239 11.6617 3.50422 11.5895 3.70587 11.5895C3.90753 11.5895 4.07936 11.6617 4.22136 11.8061C4.36337 11.9504 4.43437 12.125 4.43437 12.33C4.43437 12.535 4.36337 12.7096 4.22136 12.8539C4.07936 12.9983 3.90753 13.0704 3.70587 13.0704ZM10.2941 13.0704C10.0925 13.0704 9.92064 12.9983 9.77864 12.8539C9.63663 12.7096 9.56563 12.535 9.56563 12.33C9.56563 12.125 9.63663 11.9504 9.77864 11.8061C9.92064 11.6617 10.0925 11.5895 10.2941 11.5895C10.4958 11.5895 10.6676 11.6617 10.8096 11.8061C10.9516 11.9504 11.0226 12.125 11.0226 12.33C11.0226 12.535 10.9516 12.7096 10.8096 12.8539C10.6676 12.9983 10.4958 13.0704 10.2941 13.0704Z" fill="#A2A2A2"/>
</svg>