<svg xmlns="http://www.w3.org/2000/svg" width="16" height="18" viewBox="0 0 16 18" fill="none">
  <path d="M15 17.0146C13.2815 17.0146 11.5296 16.5739 9.74444 15.6924C7.95926 14.8109 6.3037 13.5596 4.77778 11.9383C3.25185 10.317 2.07407 8.55794 1.24444 6.66118C0.414815 4.76442 0 2.90307 0 1.07715C0 0.778074 0.0962963 0.526223 0.288889 0.321593C0.481481 0.116963 0.718519 0.0146484 1 0.0146484H4.11111C4.31852 0.0146484 4.4963 0.0933521 4.64444 0.25076C4.79259 0.408167 4.8963 0.604926 4.95556 0.841037L5.55556 3.81604C5.58519 4.03641 5.58148 4.2371 5.54444 4.41812C5.50741 4.59914 5.42963 4.75261 5.31111 4.87854L3.08889 7.26326C3.47407 7.95585 3.88148 8.60122 4.31111 9.19937C4.74074 9.79752 5.21482 10.3642 5.73333 10.8994C6.28148 11.4975 6.85926 12.0445 7.46667 12.5403C8.07407 13.0362 8.71111 13.473 9.37778 13.8508L11.4889 11.5369C11.637 11.3637 11.8074 11.2457 12 11.1827C12.1926 11.1197 12.3852 11.104 12.5778 11.1355L15.2222 11.7494C15.4444 11.8123 15.6296 11.9383 15.7778 12.1271C15.9259 12.316 16 12.5285 16 12.7646V15.9521C16 16.2512 15.9037 16.5031 15.7111 16.7077C15.5185 16.9123 15.2815 17.0146 15 17.0146Z" fill="#797979"/>
</svg>