<svg width="44" height="41" viewBox="0 0 44 41" fill="none" xmlns="http://www.w3.org/2000/svg">
<rect width="44" height="41" rx="5" fill="#F5F8F9"/>
<rect x="0.5" y="0.5" width="43" height="40" rx="4.5" stroke="black" stroke-opacity="0.2"/>
<path d="M15 31C14.45 31 13.9792 30.8042 13.5875 30.4125C13.1958 30.0208 13 29.55 13 29V15C13 14.45 13.1958 13.9792 13.5875 13.5875C13.9792 13.1958 14.45 13 15 13H16V11H18V13H26V11H28V13H29C29.55 13 30.0208 13.1958 30.4125 13.5875C30.8042 13.9792 31 14.45 31 15V29C31 29.55 30.8042 30.0208 30.4125 30.4125C30.0208 30.8042 29.55 31 29 31H15ZM15 29H29V19H15V29ZM15 17H29V15H15V17ZM22 23C21.7167 23 21.4792 22.9042 21.2875 22.7125C21.0958 22.5208 21 22.2833 21 22C21 21.7167 21.0958 21.4792 21.2875 21.2875C21.4792 21.0958 21.7167 21 22 21C22.2833 21 22.5208 21.0958 22.7125 21.2875C22.9042 21.4792 23 21.7167 23 22C23 22.2833 22.9042 22.5208 22.7125 22.7125C22.5208 22.9042 22.2833 23 22 23ZM18 23C17.7167 23 17.4792 22.9042 17.2875 22.7125C17.0958 22.5208 17 22.2833 17 22C17 21.7167 17.0958 21.4792 17.2875 21.2875C17.4792 21.0958 17.7167 21 18 21C18.2833 21 18.5208 21.0958 18.7125 21.2875C18.9042 21.4792 19 21.7167 19 22C19 22.2833 18.9042 22.5208 18.7125 22.7125C18.5208 22.9042 18.2833 23 18 23ZM26 23C25.7167 23 25.4792 22.9042 25.2875 22.7125C25.0958 22.5208 25 22.2833 25 22C25 21.7167 25.0958 21.4792 25.2875 21.2875C25.4792 21.0958 25.7167 21 26 21C26.2833 21 26.5208 21.0958 26.7125 21.2875C26.9042 21.4792 27 21.7167 27 22C27 22.2833 26.9042 22.5208 26.7125 22.7125C26.5208 22.9042 26.2833 23 26 23ZM22 27C21.7167 27 21.4792 26.9042 21.2875 26.7125C21.0958 26.5208 21 26.2833 21 26C21 25.7167 21.0958 25.4792 21.2875 25.2875C21.4792 25.0958 21.7167 25 22 25C22.2833 25 22.5208 25.0958 22.7125 25.2875C22.9042 25.4792 23 25.7167 23 26C23 26.2833 22.9042 26.5208 22.7125 26.7125C22.5208 26.9042 22.2833 27 22 27ZM18 27C17.7167 27 17.4792 26.9042 17.2875 26.7125C17.0958 26.5208 17 26.2833 17 26C17 25.7167 17.0958 25.4792 17.2875 25.2875C17.4792 25.0958 17.7167 25 18 25C18.2833 25 18.5208 25.0958 18.7125 25.2875C18.9042 25.4792 19 25.7167 19 26C19 26.2833 18.9042 26.5208 18.7125 26.7125C18.5208 26.9042 18.2833 27 18 27ZM26 27C25.7167 27 25.4792 26.9042 25.2875 26.7125C25.0958 26.5208 25 26.2833 25 26C25 25.7167 25.0958 25.4792 25.2875 25.2875C25.4792 25.0958 25.7167 25 26 25C26.2833 25 26.5208 25.0958 26.7125 25.2875C26.9042 25.4792 27 25.7167 27 26C27 26.2833 26.9042 26.5208 26.7125 26.7125C26.5208 26.9042 26.2833 27 26 27Z" fill="black" fill-opacity="0.7"/>
</svg>
