<svg xmlns="http://www.w3.org/2000/svg" width="21" height="22" viewBox="0 0 21 22" fill="none">
  <path d="M3.86842 9.9L9.94737 0L16.0263 9.9H3.86842ZM16.0263 22C14.6447 22 13.4704 21.5188 12.5033 20.5562C11.5362 19.5938 11.0526 18.425 11.0526 17.05C11.0526 15.675 11.5362 14.5063 12.5033 13.5438C13.4704 12.5813 14.6447 12.1 16.0263 12.1C17.4079 12.1 18.5822 12.5813 19.5493 13.5438C20.5164 14.5063 21 15.675 21 17.05C21 18.425 20.5164 19.5938 19.5493 20.5562C18.5822 21.5188 17.4079 22 16.0263 22ZM0 21.45V12.65H8.8421V21.45H0ZM16.0263 19.8C16.8 19.8 17.4539 19.5342 17.9882 19.0025C18.5224 18.4708 18.7895 17.82 18.7895 17.05C18.7895 16.28 18.5224 15.6292 17.9882 15.0975C17.4539 14.5658 16.8 14.3 16.0263 14.3C15.2526 14.3 14.5987 14.5658 14.0645 15.0975C13.5303 15.6292 13.2632 16.28 13.2632 17.05C13.2632 17.82 13.5303 18.4708 14.0645 19.0025C14.5987 19.5342 15.2526 19.8 16.0263 19.8ZM2.21053 19.25H6.63158V14.85H2.21053V19.25ZM7.79211 7.7H12.1026L9.94737 4.235L7.79211 7.7Z" fill="#4D4D4D"/>
</svg>