<svg xmlns="http://www.w3.org/2000/svg" width="45" height="41" viewBox="0 0 45 41" fill="none">
  <rect width="45" height="41" rx="5" fill="#F5F8F9"/>
  <rect x="0.5" y="0.5" width="44" height="40" rx="4.5" stroke="black" stroke-opacity="0.2"/>
  <path d="M29.7556 29L24.1556 23.4C23.7111 23.7556 23.2 24.037 22.6222 24.2444C22.0444 24.4519 21.4296 24.5556 20.7778 24.5556C19.163 24.5556 17.7963 23.9963 16.6778 22.8778C15.5593 21.7593 15 20.3926 15 18.7778C15 17.163 15.5593 15.7963 16.6778 14.6778C17.7963 13.5593 19.163 13 20.7778 13C22.3926 13 23.7593 13.5593 24.8778 14.6778C25.9963 15.7963 26.5556 17.163 26.5556 18.7778C26.5556 19.4296 26.4519 20.0444 26.2444 20.6222C26.037 21.2 25.7556 21.7111 25.4 22.1556L31 27.7556L29.7556 29ZM20.7778 22.7778C21.8889 22.7778 22.8333 22.3889 23.6111 21.6111C24.3889 20.8333 24.7778 19.8889 24.7778 18.7778C24.7778 17.6667 24.3889 16.7222 23.6111 15.9444C22.8333 15.1667 21.8889 14.7778 20.7778 14.7778C19.6667 14.7778 18.7222 15.1667 17.9444 15.9444C17.1667 16.7222 16.7778 17.6667 16.7778 18.7778C16.7778 19.8889 17.1667 20.8333 17.9444 21.6111C18.7222 22.3889 19.6667 22.7778 20.7778 22.7778Z" fill="black" fill-opacity="0.7"/>
</svg>