<svg xmlns="http://www.w3.org/2000/svg" width="21" height="21" viewBox="0 0 21 21" fill="none">
  <path d="M5.20833 16.7741C4.91319 16.7741 4.6658 16.6743 4.46615 16.4746C4.26649 16.275 4.16667 16.0276 4.16667 15.7324V13.6491H17.7083V4.27409H19.7917C20.0868 4.27409 20.3342 4.37392 20.5339 4.57357C20.7335 4.77322 20.8333 5.02062 20.8333 5.31576V20.9408L16.6667 16.7741H5.20833ZM0 15.7324V1.14909C0 0.85395 0.0998264 0.606554 0.299479 0.406901C0.499132 0.207248 0.746528 0.107422 1.04167 0.107422H14.5833C14.8785 0.107422 15.1259 0.207248 15.3255 0.406901C15.5252 0.606554 15.625 0.85395 15.625 1.14909V10.5241C15.625 10.8192 15.5252 11.0666 15.3255 11.2663C15.1259 11.4659 14.8785 11.5658 14.5833 11.5658H4.16667L0 15.7324ZM13.5417 9.48242V2.19076H2.08333V9.48242H13.5417Z" fill="black" fill-opacity="0.7"/>
</svg>