<svg width="25" height="25" viewBox="0 0 25 25" fill="none" xmlns="http://www.w3.org/2000/svg">
<rect width="25" height="25" fill="#F6F6F6"/>
<rect x="0.5" y="0.5" width="24" height="24" stroke="black" stroke-opacity="0.2"/>
<path d="M8.4375 20C7.99062 20 7.60807 19.8477 7.28984 19.5431C6.97161 19.2384 6.8125 18.8722 6.8125 18.4444V8.33333H6V6.77778H10.0625V6H14.9375V6.77778H19V8.33333H18.1875V18.4444C18.1875 18.8722 18.0284 19.2384 17.7102 19.5431C17.3919 19.8477 17.0094 20 16.5625 20H8.4375ZM16.5625 8.33333H8.4375V18.4444H16.5625V8.33333ZM10.0625 16.8889H11.6875V9.88889H10.0625V16.8889ZM13.3125 16.8889H14.9375V9.88889H13.3125V16.8889Z" fill="black" fill-opacity="0.7"/>
</svg>
