<svg width="18" height="14" viewBox="0 0 18 14" fill="none" xmlns="http://www.w3.org/2000/svg">
<path d="M1.12032 7.81803C0.832289 7.19192 0.832289 6.4696 1.12032 5.84349C2.45359 2.94525 5.38473 0.932861 8.78628 0.932861C12.1878 0.932861 15.119 2.94525 16.4522 5.84349C16.7403 6.4696 16.7403 7.19192 16.4522 7.81804C15.119 10.7163 12.1878 12.7287 8.78628 12.7287C5.38473 12.7287 2.45359 10.7163 1.12032 7.81803Z" stroke="#807D7E" stroke-width="1.51786"/>
<path d="M11.316 6.83076C11.316 8.22675 10.1834 9.35843 8.78628 9.35843C7.38913 9.35843 6.25652 8.22675 6.25652 6.83076C6.25652 5.43477 7.38913 4.30309 8.78628 4.30309C10.1834 4.30309 11.316 5.43477 11.316 6.83076Z" stroke="#807D7E" stroke-width="1.51786"/>
</svg>
