<svg xmlns="http://www.w3.org/2000/svg" width="18" height="13" viewBox="0 0 18 13" fill="none">
  <path d="M1.67442 13C1.21395 13 0.819767 12.8409 0.49186 12.5227C0.163953 12.2044 0 11.8219 0 11.375V1.625C0 1.17812 0.163953 0.795573 0.49186 0.477344C0.819767 0.159115 1.21395 0 1.67442 0H6.69767L8.37209 1.625H15.0698C15.5302 1.625 15.9244 1.78411 16.2523 2.10234C16.5802 2.42057 16.7442 2.80312 16.7442 3.25H1.67442V11.375L3.68372 4.875H18L15.8442 11.8422C15.7326 12.1943 15.5267 12.4753 15.2267 12.6852C14.9267 12.8951 14.5953 13 14.2326 13H1.67442Z" fill="black" fill-opacity="0.7"/>
</svg>