<svg xmlns="http://www.w3.org/2000/svg" width="110" height="63" viewBox="0 0 110 63" fill="none">
  <rect x="0.517578" y="0.310364" width="108.844" height="62.5852" rx="10.8844" fill="white"/>
  <path d="M53.3806 30.362V36.9643H51.2715V20.6596H56.8652C57.5329 20.6458 58.1967 20.7634 58.8184 21.0056C59.4401 21.2479 60.0073 21.61 60.4874 22.0711C60.9722 22.5042 61.3581 23.0354 61.6191 23.6289C61.8801 24.2224 62.0101 24.8645 62.0004 25.5121C62.0143 26.1631 61.8863 26.8094 61.6251 27.4067C61.364 28.004 60.9758 28.5382 60.4874 28.9726C59.5092 29.8989 58.3018 30.3616 56.8652 30.3607H53.3806V30.362ZM53.3806 22.667V28.3586H56.9176C57.3054 28.37 57.6913 28.3009 58.0506 28.1557C58.4099 28.0106 58.7348 27.7925 59.0044 27.5155C59.2727 27.2566 59.4859 26.9468 59.6315 26.6046C59.777 26.2624 59.8521 25.8947 59.8521 25.5232C59.8521 25.1517 59.777 24.7839 59.6315 24.4417C59.4859 24.0995 59.2727 23.7897 59.0044 23.5308C58.7382 23.248 58.4144 23.0246 58.0547 22.8754C57.6949 22.7263 57.3073 22.6548 56.9176 22.6656H53.3806V22.667Z" fill="#5F6368"/>
  <path d="M66.8616 25.4444C68.4205 25.4444 69.651 25.8581 70.5532 26.6855C71.4554 27.5129 71.906 28.6473 71.9051 30.0887V36.9642H69.8877V35.4161H69.796C68.9227 36.691 67.7611 37.3285 66.3114 37.3285C65.0739 37.3285 64.0386 36.9642 63.2054 36.2357C62.8056 35.9013 62.4859 35.4825 62.2697 35.0099C62.0535 34.5373 61.9462 34.0227 61.9557 33.5037C61.9557 32.3493 62.3949 31.4313 63.2735 30.7496C64.1521 30.0679 65.325 29.7262 66.7922 29.7245C68.0445 29.7245 69.076 29.9521 69.8864 30.4075V29.9287C69.8888 29.5749 69.8119 29.225 69.6612 28.9043C69.5105 28.5837 69.2899 28.3004 69.0153 28.0749C68.4575 27.5752 67.7307 27.3025 66.9795 27.3112C65.8014 27.3112 64.8691 27.8047 64.1827 28.7917L62.3251 27.63C63.3469 26.1729 64.8591 25.4444 66.8616 25.4444ZM64.1329 33.5492C64.1315 33.8158 64.1942 34.0788 64.3159 34.3164C64.4376 34.5541 64.6147 34.7593 64.8324 34.9152C65.2989 35.2796 65.8779 35.4726 66.4712 35.4616C67.3612 35.4601 68.2144 35.1083 68.8437 34.4833C69.5423 33.8302 69.8917 33.064 69.8917 32.1846C69.234 31.6642 68.317 31.404 67.1406 31.404C66.2839 31.404 65.5695 31.6091 64.9975 32.0193C64.4198 32.4356 64.1329 32.9417 64.1329 33.5492Z" fill="#5F6368"/>
  <path d="M83.4853 25.8087L76.4427 41.8817H74.2655L76.8789 36.2578L72.248 25.8087H74.5406L77.8876 33.8224H77.9335L81.1888 25.8087H83.4853Z" fill="#5F6368"/>
  <path d="M44.8562 28.9388C44.857 28.3004 44.8026 27.6633 44.6937 27.0342H35.7988V30.6417H40.8934C40.7892 31.2178 40.5685 31.7671 40.2448 32.2563C39.921 32.7455 39.5009 33.1645 39.0096 33.4881V35.8298H42.0502C43.8305 34.1997 44.8562 31.7891 44.8562 28.9388Z" fill="#4285F4"/>
  <path d="M35.8003 38.0921C38.3456 38.0921 40.4888 37.2621 42.0516 35.831L39.0111 33.4893C38.1649 34.0592 37.0749 34.3844 35.8003 34.3844C33.3401 34.3844 31.252 32.7374 30.5053 30.518H27.373V32.9312C28.1581 34.4826 29.3619 35.7867 30.85 36.698C32.3381 37.6093 34.052 38.092 35.8003 38.0921Z" fill="#34A853"/>
  <path d="M30.5057 30.518C30.1109 29.3551 30.1109 28.0956 30.5057 26.9326V24.5194H27.3735C26.7131 25.8244 26.3691 27.2648 26.3691 28.7253C26.3691 30.1859 26.7131 31.6262 27.3735 32.9313L30.5057 30.518Z" fill="#FBBC04"/>
  <path d="M35.8003 23.0663C37.1454 23.0444 38.4451 23.5491 39.4185 24.4713L42.1106 21.7978C40.4035 20.2056 38.1421 19.3314 35.8003 19.3586C34.052 19.3587 32.3381 19.8413 30.85 20.7526C29.3619 21.6639 28.1581 22.9681 27.373 24.5194L30.5053 26.9326C31.252 24.7132 33.3401 23.0663 35.8003 23.0663Z" fill="#EA4335"/>
</svg>