<svg width="19" height="20" viewBox="0 0 19 20" fill="none" xmlns="http://www.w3.org/2000/svg">
<g clip-path="url(#clip0_91_788)">
<path d="M18.4909 10.4228C18.4909 9.78923 18.4395 9.15223 18.3297 8.52893H9.52344V12.118H14.5664C14.3571 13.2756 13.6847 14.2996 12.7001 14.9503V17.2791H15.7088C17.4755 15.6558 18.4909 13.2585 18.4909 10.4228Z" fill="#4285F4"/>
<path d="M9.52281 19.529C12.0408 19.529 14.1644 18.7036 15.7115 17.279L12.7029 14.9502C11.8659 15.5187 10.7853 15.8406 9.52624 15.8406C7.09055 15.8406 5.02535 14.2001 4.28435 11.9946H1.17969V14.3954C2.76461 17.5427 5.99277 19.529 9.52281 19.529Z" fill="#34A853"/>
<path d="M4.2809 11.9947C3.88981 10.8371 3.88981 9.58367 4.2809 8.42612V6.02539H1.17967C-0.144526 8.659 -0.144526 11.7618 1.17967 14.3954L4.2809 11.9947Z" fill="#FBBC04"/>
<path d="M9.52281 4.57674C10.8539 4.5562 12.1403 5.0562 13.1043 5.97403L15.7699 3.31302C14.082 1.7308 11.8419 0.860926 9.52281 0.888323C5.99276 0.888323 2.76461 2.87466 1.17969 6.0254L4.28091 8.42613C5.01849 6.21718 7.08711 4.57674 9.52281 4.57674Z" fill="#EA4335"/>
</g>
<defs>
<clipPath id="clip0_91_788">
<rect y="0.887695" width="18.6725" height="18.6407" rx="8.87654" fill="white"/>
</clipPath>
</defs>
</svg>
