<svg width="24" height="27" viewBox="0 0 24 27" fill="none" xmlns="http://www.w3.org/2000/svg">
<circle cx="12" cy="13" r="12" fill="white"/>
<circle cx="12" cy="13" r="11" stroke="black" stroke-opacity="0.7" stroke-width="2"/>
<path d="M12.752 7.004C14 7.004 15.002 7.346 15.758 8.03C16.526 8.702 16.91 9.632 16.91 10.82C16.91 11.996 16.532 12.896 15.776 13.52C15.02 14.132 14.018 14.438 12.77 14.438L12.698 15.824H10.484L10.394 12.764H11.204C12.248 12.764 13.052 12.626 13.616 12.35C14.18 12.074 14.462 11.57 14.462 10.838C14.462 10.31 14.306 9.89 13.994 9.578C13.694 9.266 13.28 9.11 12.752 9.11C12.2 9.11 11.768 9.26 11.456 9.56C11.156 9.86 11.006 10.274 11.006 10.802H8.63C8.618 10.07 8.774 9.416 9.098 8.84C9.422 8.264 9.896 7.814 10.52 7.49C11.156 7.166 11.9 7.004 12.752 7.004ZM11.582 20.126C11.126 20.126 10.748 19.988 10.448 19.712C10.16 19.424 10.016 19.07 10.016 18.65C10.016 18.23 10.16 17.882 10.448 17.606C10.748 17.318 11.126 17.174 11.582 17.174C12.026 17.174 12.392 17.318 12.68 17.606C12.968 17.882 13.112 18.23 13.112 18.65C13.112 19.07 12.968 19.424 12.68 19.712C12.392 19.988 12.026 20.126 11.582 20.126Z" fill="black" fill-opacity="0.7"/>
</svg>
