<svg width="17" height="21" viewBox="0 0 17 21" fill="none" xmlns="http://www.w3.org/2000/svg">
<path d="M1.59375 21C1.15547 21 0.780273 20.8531 0.468164 20.5594C0.156055 20.2656 0 19.9125 0 19.5V8.65C0 8.2375 0.156055 7.88438 0.468164 7.59063C0.780273 7.29688 1.15547 7.15 1.59375 7.15H3.45312V4.75C3.45312 3.43583 3.94547 2.31563 4.93016 1.38938C5.91485 0.463125 7.10573 0 8.50282 0C9.8999 0 11.0898 0.463125 12.0727 1.38938C13.0555 2.31563 13.5469 3.43583 13.5469 4.75V7.15H15.4062C15.8445 7.15 16.2197 7.29688 16.5318 7.59063C16.8439 7.88438 17 8.2375 17 8.65V19.5C17 19.9125 16.8439 20.2656 16.5318 20.5594C16.2197 20.8531 15.8445 21 15.4062 21H1.59375ZM1.59375 19.5H15.4062V8.65H1.59375V19.5ZM8.50446 16C9.06815 16 9.54922 15.8164 9.94766 15.4492C10.3461 15.082 10.5453 14.6406 10.5453 14.125C10.5453 13.625 10.3446 13.1708 9.94319 12.7625C9.54178 12.3542 9.05923 12.15 8.49554 12.15C7.93185 12.15 7.45078 12.3542 7.05234 12.7625C6.65391 13.1708 6.45469 13.6292 6.45469 14.1375C6.45469 14.6458 6.65539 15.0833 7.05681 15.45C7.45822 15.8167 7.94077 16 8.50446 16ZM5.04688 7.15H11.9531V4.75C11.9531 3.84722 11.6177 3.07986 10.9469 2.44792C10.276 1.81597 9.46146 1.5 8.50313 1.5C7.5448 1.5 6.72917 1.81597 6.05625 2.44792C5.38333 3.07986 5.04688 3.84722 5.04688 4.75V7.15Z" fill="white"/>
</svg>
