<svg xmlns="http://www.w3.org/2000/svg" width="10" height="14" viewBox="0 0 10 14" fill="none">
  <path d="M5.00139 6.35215C5.30255 6.35215 5.5599 6.24062 5.77344 6.01758C5.98698 5.79454 6.09375 5.52642 6.09375 5.2132C6.09375 4.9 5.98652 4.63236 5.77205 4.41027C5.55759 4.18819 5.29978 4.07715 4.99861 4.07715C4.69745 4.07715 4.4401 4.18867 4.22656 4.41172C4.01302 4.63476 3.90625 4.90288 3.90625 5.21609C3.90625 5.5293 4.01348 5.79694 4.22795 6.01902C4.44241 6.24111 4.70022 6.35215 5.00139 6.35215ZM5 13.0146C3.32292 11.5305 2.07031 10.1519 1.24219 8.87902C0.414062 7.60611 0 6.42798 0 5.34465C0 3.71965 0.502604 2.42507 1.50781 1.4609C2.51302 0.496732 3.67708 0.0146484 5 0.0146484C6.32292 0.0146484 7.48698 0.496732 8.49219 1.4609C9.4974 2.42507 10 3.71965 10 5.34465C10 6.42798 9.58594 7.60611 8.75781 8.87902C7.92969 10.1519 6.67708 11.5305 5 13.0146Z" fill="#797979"/>
</svg>