<svg xmlns="http://www.w3.org/2000/svg" width="15" height="13" viewBox="0 0 15 13" fill="none">
  <path d="M1.125 12.0146C0.825 12.0146 0.5625 11.9021 0.3375 11.6771C0.1125 11.4521 0 11.1896 0 10.8896V1.13965C0 0.839648 0.1125 0.577148 0.3375 0.352148C0.5625 0.127148 0.825 0.0146484 1.125 0.0146484H13.875C14.175 0.0146484 14.4375 0.127148 14.6625 0.352148C14.8875 0.577148 15 0.839648 15 1.13965V10.8896C15 11.1896 14.8875 11.4521 14.6625 11.6771C14.4375 11.9021 14.175 12.0146 13.875 12.0146H1.125ZM7.5 6.35215L1.125 2.1709V10.8896H13.875V2.1709L10.6875 4.26152L7.5 6.35215ZM7.5 5.22715L13.8 1.13965H1.21875L7.5 5.22715ZM1.125 2.1709V1.13965V10.8896V2.1709Z" fill="#797979"/>
</svg>