<svg xmlns="http://www.w3.org/2000/svg" width="45" height="41" viewBox="0 0 45 41" fill="none">
<rect width="45" height="41" rx="5" fill="#F5F8F9"/>
<rect x="0.5" y="0.5" width="44" height="40" rx="4.5" stroke="black" stroke-opacity="0.2"/>
<path d="M23 20C21.9 20 20.9583 19.6083 20.175 18.825C19.3917 18.0417 19 17.1 19 16C19 14.9 19.3917 13.9583 20.175 13.175C20.9583 12.3917 21.9 12 23 12C24.1 12 25.0417 12.3917 25.825 13.175C26.6083 13.9583 27 14.9 27 16C27 17.1 26.6083 18.0417 25.825 18.825C25.0417 19.6083 24.1 20 23 20ZM15 28V25.2C15 24.6333 15.1458 24.1125 15.4375 23.6375C15.7292 23.1625 16.1167 22.8 16.6 22.55C17.6333 22.0333 18.6833 21.6458 19.75 21.3875C20.8167 21.1292 21.9 21 23 21C24.1 21 25.1833 21.1292 26.25 21.3875C27.3167 21.6458 28.3667 22.0333 29.4 22.55C29.8833 22.8 30.2708 23.1625 30.5625 23.6375C30.8542 24.1125 31 24.6333 31 25.2V28H15Z" fill="black" fill-opacity="0.7"/>
</svg>