<svg xmlns="http://www.w3.org/2000/svg" width="21" height="22" viewBox="0 0 21 22" fill="none">
  <path fill-rule="evenodd" clip-rule="evenodd" d="M6.29991 17.5995C5.14493 17.5995 4.21045 18.5894 4.21045 19.7994C4.21045 21.0094 5.14493 21.9994 6.29991 21.9994C7.45489 21.9994 8.39988 21.0094 8.39988 19.7994C8.39988 18.5894 7.45489 17.5995 6.29991 17.5995ZM0 1.09998C0 1.70497 0.472492 2.19996 1.04998 2.19996H2.09996L5.8799 10.5488L4.46242 13.2328C3.69593 14.7067 4.70392 16.4997 6.29989 16.4997H17.8497C18.4272 16.4997 18.8997 16.0047 18.8997 15.3997C18.8997 14.7947 18.4272 14.2997 17.8497 14.2997H6.29989L7.45487 12.0998H15.2772C16.0647 12.0998 16.7577 11.6488 17.1147 10.9668L20.8736 3.82793C21.2621 3.10195 20.7581 2.19996 19.9601 2.19996H4.42042L3.71693 0.626989C3.54894 0.241996 3.17094 0 2.77195 0H1.04998C0.472492 0 0 0.494991 0 1.09998ZM16.7999 17.5995C15.6449 17.5995 14.7104 18.5894 14.7104 19.7994C14.7104 21.0094 15.6449 21.9994 16.7999 21.9994C17.9549 21.9994 18.8999 21.0094 18.8999 19.7994C18.8999 18.5894 17.9549 17.5995 16.7999 17.5995Z" fill="#8B96A5"/>
</svg>