<svg width="107" height="99" viewBox="0 0 107 99" fill="none" xmlns="http://www.w3.org/2000/svg">
<path d="M32.1962 92.2028C22.5766 87.393 10.1512 63.7447 5.14102 52.5218C-1.42702 39.2949 2.73611 33.8837 3.33734 29.6751C3.81832 26.3083 9.55001 20.2559 12.3557 17.6506C15.5623 14.0433 26.184 5.86663 43.0183 2.01877C64.0613 -2.79104 86.3067 10.436 97.73 20.6568C106.869 28.8335 106.748 40.4973 105.546 45.3071C103.341 51.5198 96.0465 67.9133 84.503 83.7856C70.0735 103.626 44.2208 98.2151 32.1962 92.2028Z" fill="#ECECEC" stroke="#F6F7FA" stroke-width="1.20245"/>
<circle cx="53.7907" cy="47.2945" r="39.0798" fill="#05C697"/>
<path d="M27.1103 55.7118L42.7422 68.9388C44.4476 70.3818 46.2581 68.3375 46.9502 67.135L52.3613 59.9202C51.7601 60.1206 52.9625 57.7558 62.5821 46.6932C74.6067 32.865 75.8091 34.6687 81.8214 31.0613C83.2643 26.2515 79.6169 25.0491 77.6128 25.0491C76.8112 25.4499 74.6067 26.6123 72.2018 28.0552C65.949 31.9031 56.3695 42.0838 52.3613 46.6932L42.7422 58.7178C41.74 57.7158 38.2927 54.5093 32.5213 49.6995C26.2686 48.7375 26.3086 53.3069 27.1103 55.7118Z" fill="white"/>
</svg>
