<svg xmlns="http://www.w3.org/2000/svg" width="110" height="63" viewBox="0 0 110 63" fill="none">
  <rect x="0.267578" y="0.310364" width="108.844" height="62.5852" rx="10.8844" fill="white"/>
  <path fill-rule="evenodd" clip-rule="evenodd" d="M22.038 29.7797C21.8882 30.1543 21.8133 30.5538 21.7134 30.9533C21.4637 32.1518 21.264 33.4252 20.9893 34.6237C20.44 34.6237 19.8657 34.6237 19.3164 34.6237C19.9406 30.5787 21.0892 26.6336 21.5886 22.289C22.1379 22.289 22.6872 22.289 23.2116 22.289C23.1367 22.6885 23.0368 23.0631 22.9868 23.4626C22.9868 23.4875 22.9369 23.5125 22.9369 23.5625C23.686 22.5887 24.8345 21.9145 26.6573 22.1143C28.455 22.289 29.4288 23.7123 29.5037 25.3852C29.6785 28.5812 27.9806 31.4776 24.485 31.2279C23.3364 31.153 22.4625 30.7285 22.038 29.7797ZM24.3851 23.7123C22.9119 24.4613 21.4887 27.9071 23.1616 29.3802C24.2603 30.354 25.9831 29.8297 26.7072 28.9308C27.5312 27.907 28.2803 24.9607 27.0318 23.912C26.6073 23.5625 25.9332 23.4376 25.309 23.5125C24.8595 23.5375 24.6348 23.5874 24.3851 23.7123Z" fill="#030000"/>
  <path fill-rule="evenodd" clip-rule="evenodd" d="M37.2204 31.0531C36.6961 31.0531 36.1717 31.0531 35.6224 31.0531C35.6973 30.5537 35.7972 30.0793 35.8971 29.6049C35.4227 30.304 34.5987 31.103 33.4002 31.2279C31.6773 31.4027 30.1043 30.5288 29.9545 29.1055C29.9045 28.6311 29.9295 27.8571 30.329 27.2578C31.3278 25.6848 33.9245 25.5849 36.4963 25.6598C37.2704 22.8133 33.1255 23.2378 31.7023 24.1617C31.7772 23.6124 31.9021 23.088 31.977 22.5387C34.5488 21.7397 38.0194 21.9394 38.2192 24.711C38.2941 25.8096 37.9695 26.8833 37.7698 27.932C37.57 28.9557 37.3703 29.9545 37.2204 31.0531ZM31.7772 28.7809C31.8271 29.505 32.6261 29.9045 33.2753 29.9045C35.0481 29.9295 35.8971 28.3814 36.1717 26.8583C34.1742 26.7584 31.6524 27.0081 31.7772 28.7809Z" fill="#030000"/>
  <path fill-rule="evenodd" clip-rule="evenodd" d="M41.066 22.314C41.4405 24.6361 41.8899 26.8833 42.2395 29.2553C43.5629 26.9832 44.7863 24.6111 46.0847 22.314C46.684 22.314 47.2832 22.314 47.9075 22.314C46.3094 25.2104 44.4368 28.3814 42.639 31.4276C42.0897 32.3765 41.5404 33.6499 40.7414 34.2741C40.0422 34.8234 38.6939 34.9483 37.5703 34.7235C37.5953 34.2242 37.7701 33.8496 37.795 33.3752C38.0198 33.3502 38.2944 33.5001 38.5691 33.5001C39.7925 33.5001 40.4667 32.3765 40.9162 31.5025C40.3918 28.4813 39.8175 25.485 39.2932 22.4388C39.2432 22.3889 39.2682 22.3639 39.2932 22.314C39.8924 22.314 40.4917 22.314 41.066 22.314Z" fill="#030000"/>
  <path fill-rule="evenodd" clip-rule="evenodd" d="M48.6324 36.1717C48.2578 38.2941 47.7834 40.2916 47.4089 42.414C46.2353 42.414 45.0618 42.414 43.8633 42.414C44.4126 39.8172 44.887 37.2454 45.4114 34.6736C45.9357 32.1268 46.5599 29.5799 46.8596 26.8833C47.8084 26.8084 49.0818 26.8084 50.0306 26.8833C50.0056 27.4826 49.8558 27.9819 49.8059 28.5562C50.7297 27.6324 51.7285 26.4089 53.8509 26.6086C55.8733 26.8084 56.9969 28.5063 57.1468 30.6536C57.4214 34.349 55.6237 37.9695 52.3777 38.2192C50.3552 38.369 49.4064 37.4452 48.6324 36.1717ZM50.0556 30.6536C49.2316 31.8272 48.9569 34.0744 50.0056 34.9483C50.6548 35.4976 51.8533 35.2229 52.4027 34.7735C53.1018 34.1992 53.6012 33.1006 53.5762 31.7273C53.5512 30.4788 53.0019 29.4301 51.6786 29.6049C50.9045 29.7048 50.4301 30.1043 50.0556 30.6536Z" fill="#009651"/>
  <path fill-rule="evenodd" clip-rule="evenodd" d="M66.8574 37.9944C65.9335 37.9694 64.8848 38.0443 64.0359 37.9445C64.1357 37.4451 64.1357 36.8209 64.2107 36.3215C63.936 36.5961 63.7362 36.9957 63.3867 37.3202C62.2381 38.3689 59.6663 38.5937 58.3929 37.545C57.0196 36.3964 57.2443 33.6498 58.3929 32.4763C59.7162 31.103 62.2131 30.7534 64.7849 31.0281C65.0346 29.9794 64.3355 29.3302 63.4616 29.2053C62.1882 29.0306 60.4903 29.5799 59.7412 30.0293C59.891 29.1304 59.941 28.1566 60.1157 27.2578C61.0146 26.9332 61.8636 26.6835 62.9372 26.6335C65.9085 26.4338 67.956 27.4325 68.1557 29.9794C68.2556 31.3277 67.8561 32.726 67.5565 34.0493C67.2818 35.3477 67.0821 36.6711 66.8574 37.9944ZM63.2868 33.0006C62.2131 33.0256 61.0396 33.3752 60.7899 34.1742C60.5902 34.8733 61.0895 35.5225 61.6139 35.6224C63.2618 35.9719 64.3854 34.3489 64.5103 33.0506C64.1357 32.9756 63.5864 33.0006 63.2868 33.0006Z" fill="#009651"/>
  <path fill-rule="evenodd" clip-rule="evenodd" d="M77.745 27.2578C77.5702 28.1567 77.2456 28.9058 77.0709 29.8046C76.1969 29.505 75.1482 29.0556 73.7749 29.2054C73.2256 29.2803 72.6763 29.555 72.6763 30.1043C72.7013 30.7784 73.725 31.0281 74.3492 31.2778C75.2232 31.6523 76.2718 32.1517 76.6963 32.9008C77.4204 34.1992 76.6963 36.0968 75.9223 36.8958C75.2731 37.57 74.0496 38.1193 72.8012 38.2192C71.1782 38.344 69.4803 38.0444 68.082 37.6699C68.2818 36.746 68.5065 35.8971 68.7562 35.0481C69.68 35.4227 70.7287 35.7722 72.152 35.6474C72.8261 35.5725 73.5752 35.3477 73.4753 34.5487C73.4004 33.8995 72.4266 33.6748 71.7025 33.3752C70.3542 32.8259 69.3554 32.1268 69.3554 30.304C69.3554 26.5587 74.549 25.9345 77.745 27.2578Z" fill="#009651"/>
  <path fill-rule="evenodd" clip-rule="evenodd" d="M86.5825 27.2578C86.3827 28.1317 86.1081 28.9556 85.8584 29.8046C85.0344 29.48 83.9607 29.0555 82.5875 29.2053C82.0381 29.2553 81.4888 29.5299 81.4888 30.1042C81.5138 30.8033 82.7622 31.1779 83.3365 31.4276C84.5101 31.9269 85.6337 32.4763 85.7835 33.8246C85.9333 35.1479 85.384 36.2216 84.6099 36.9457C83.8858 37.6448 82.8122 38.1192 81.6137 38.2191C79.9657 38.344 78.3677 38.0443 76.8945 37.6698C77.0443 36.721 77.344 35.9469 77.5188 35.0481C78.1929 35.2478 78.8421 35.5724 79.6411 35.6473C80.7647 35.7472 82.2878 35.6723 82.2629 34.6985C82.2379 33.6498 80.0656 33.4251 79.2166 32.7509C78.2928 32.0268 77.7185 30.254 78.4426 28.8058C79.6411 26.5586 83.761 26.0592 86.5825 27.2578Z" fill="#009651"/>
  <path d="M87.9065 28.4064H87.457L87.482 28.2316H88.5806L88.5557 28.4064H88.1062L87.8565 29.7797H87.6568L87.9065 28.4064Z" fill="#009651"/>
  <path d="M89.7526 29.7797L89.8525 28.9557C89.8775 28.8059 89.9024 28.5812 89.9274 28.4314C89.8525 28.5812 89.7776 28.7809 89.6777 28.9308L89.2283 29.7797H89.0785L88.9536 28.9557C88.9286 28.7809 88.9037 28.6062 88.9037 28.4314C88.8787 28.5812 88.8288 28.8059 88.7788 28.9557L88.5791 29.7797H88.4043L88.8038 28.2316H89.0535L89.1783 29.1055C89.2033 29.2304 89.2033 29.3802 89.2033 29.505C89.2532 29.3802 89.3281 29.2554 89.3781 29.1305L89.8525 28.2316H90.1022L89.9024 29.7797H89.7526Z" fill="#009651"/>
</svg>