<svg width="25" height="25" viewBox="0 0 25 25" fill="none" xmlns="http://www.w3.org/2000/svg">
<rect width="25" height="25" fill="#F6F6F6"/>
<rect x="0.5" y="0.5" width="24" height="24" stroke="black" stroke-opacity="0.2"/>
<path d="M7.44444 17.5556H8.47361L15.5333 10.4958L14.5042 9.46667L7.44444 16.5264V17.5556ZM6 19V15.9306L15.5333 6.41528C15.6778 6.28287 15.8373 6.18056 16.0118 6.10833C16.1863 6.03611 16.3699 6 16.5625 6C16.7551 6 16.9417 6.03611 17.1222 6.10833C17.3028 6.18056 17.4593 6.28889 17.5917 6.43333L18.5847 7.44444C18.7292 7.57685 18.8345 7.73333 18.9007 7.91389C18.9669 8.09444 19 8.275 19 8.45556C19 8.64815 18.9669 8.83171 18.9007 9.00625C18.8345 9.18079 18.7292 9.34028 18.5847 9.48472L9.06944 19H6ZM15.0097 9.99028L14.5042 9.46667L15.5333 10.4958L15.0097 9.99028Z" fill="black" fill-opacity="0.7"/>
<line x1="9" y1="18.5" x2="19" y2="18.5" stroke="black" stroke-opacity="0.7"/>
</svg>
