<svg xmlns="http://www.w3.org/2000/svg" width="18" height="20" viewBox="0 0 18 20" fill="none">
  <path d="M14.355 4.28965H3.645V0.0146484H14.355V4.28965ZM14.8275 9.17159C15.0075 9.17159 15.165 9.09243 15.3 8.93409C15.435 8.77576 15.5025 8.59104 15.5025 8.37993C15.5025 8.16882 15.435 7.98409 15.3 7.82576C15.165 7.66743 15.0075 7.58826 14.8275 7.58826C14.6475 7.58826 14.49 7.66743 14.355 7.82576C14.22 7.98409 14.1525 8.16882 14.1525 8.37993C14.1525 8.59104 14.22 8.77576 14.355 8.93409C14.49 9.09243 14.6475 9.17159 14.8275 9.17159ZM13.005 17.4313V12.3646H4.995V17.4313H13.005ZM14.355 19.0146H3.645V14.3702H0V7.87854C0 7.08599 0.22875 6.42165 0.68625 5.88552C1.14375 5.34938 1.71 5.08132 2.385 5.08132H15.615C16.2908 5.08132 16.8572 5.34938 17.3143 5.88552C17.7714 6.42165 18 7.08599 18 7.87854V14.3702H14.355V19.0146Z" fill="#797979"/>
</svg>