<svg xmlns="http://www.w3.org/2000/svg" width="26" height="26" viewBox="0 0 26 26" fill="none">
  <path d="M1 21.6111V3.33333C1 2.55556 1.51429 1 3.57143 1H17.2857H21.1429C22.4286 1.12963 25 2.32222 25 6.05556C25 9.78889 22.7143 10.463 21.5714 10.3333H17.2857V20.1626C17.2857 20.672 16.496 20.9317 16.114 20.5944C14.5564 19.219 12.0674 18.4813 9.76672 21.7152C9.67809 21.8397 9.4836 21.8331 9.4011 21.7044C8.24864 19.9065 5.22868 18.6795 1 23.1069V21.6111Z" fill="#4D4D4D"/>
  <path d="M17.2857 10.3333H21.5714C22.7143 10.463 25 9.78889 25 6.05556C25 2.32222 22.4286 1.12963 21.1429 1C20.0663 1 18.7341 1 17.2857 1M17.2857 10.3333V20.1626C17.2857 20.672 16.496 20.9317 16.114 20.5944C14.5564 19.219 12.0674 18.4813 9.76672 21.7152C9.67809 21.8397 9.4836 21.8331 9.4011 21.7044C8.24864 19.9065 5.22868 18.6795 1 23.1069V21.6111V3.33333C1 2.55556 1.51429 1 3.57143 1C5.18564 1 12.0072 1 17.2857 1M17.2857 10.3333V1" stroke="white" stroke-opacity="0.7" stroke-width="2"/>
  <line x1="5.28613" y1="7.3877" x2="13.0004" y2="7.3877" stroke="white" stroke-opacity="0.7" stroke-width="2"/>
  <line x1="6.14258" y1="11.2773" x2="12.1426" y2="11.2773" stroke="white" stroke-opacity="0.7" stroke-width="2"/>
</svg>