<svg width="17" height="17" viewBox="0 0 17 17" fill="none" xmlns="http://www.w3.org/2000/svg">
<rect x="0.75" y="0.75" width="15.5" height="15.5" rx="7.75" fill="white" stroke="#17AEC9" stroke-width="1.5"/>
<path d="M8.144 4.54C8.96 4.54 9.612 4.764 10.1 5.212C10.596 5.66 10.844 6.272 10.844 7.048C10.844 7.856 10.588 8.464 10.076 8.872C9.564 9.28 8.884 9.484 8.036 9.484L7.988 10.432H6.8L6.74 8.548H7.136C7.912 8.548 8.504 8.444 8.912 8.236C9.328 8.028 9.536 7.632 9.536 7.048C9.536 6.624 9.412 6.292 9.164 6.052C8.924 5.812 8.588 5.692 8.156 5.692C7.724 5.692 7.384 5.808 7.136 6.04C6.888 6.272 6.764 6.596 6.764 7.012H5.48C5.48 6.532 5.588 6.104 5.804 5.728C6.02 5.352 6.328 5.06 6.728 4.852C7.136 4.644 7.608 4.54 8.144 4.54ZM7.376 13.084C7.128 13.084 6.92 13 6.752 12.832C6.584 12.664 6.5 12.456 6.5 12.208C6.5 11.96 6.584 11.752 6.752 11.584C6.92 11.416 7.128 11.332 7.376 11.332C7.616 11.332 7.82 11.416 7.988 11.584C8.156 11.752 8.24 11.96 8.24 12.208C8.24 12.456 8.156 12.664 7.988 12.832C7.82 13 7.616 13.084 7.376 13.084Z" fill="#17AEC9"/>
</svg>
