<svg xmlns="http://www.w3.org/2000/svg" width="17" height="18" viewBox="0 0 17 18" fill="none">
  <path d="M15.2167 17.2253L9.44167 11.4716C8.98333 11.8369 8.45625 12.1261 7.86042 12.3392C7.26458 12.5523 6.63056 12.6589 5.95833 12.6589C4.29306 12.6589 2.88383 12.0841 1.73067 10.9346C0.5775 9.78506 0.000611111 8.38103 0 6.7225C0 5.06336 0.576889 3.65933 1.73067 2.51042C2.88444 1.3615 4.29367 0.786742 5.95833 0.786133C7.62361 0.786133 9.03283 1.36089 10.186 2.51042C11.3392 3.65994 11.9161 5.06397 11.9167 6.7225C11.9167 7.39224 11.8097 8.02393 11.5958 8.61757C11.3819 9.21121 11.0917 9.73635 10.725 10.193L16.5 15.9467L15.2167 17.2253ZM5.95833 10.8323C7.10417 10.8323 8.07828 10.4326 8.88067 9.63315C9.68306 8.83372 10.0839 7.8635 10.0833 6.7225C10.0833 5.58089 9.68214 4.61037 8.87975 3.81094C8.07736 3.01151 7.10356 2.6121 5.95833 2.61271C4.8125 2.61271 3.83839 3.01242 3.036 3.81185C2.23361 4.61128 1.83272 5.5815 1.83333 6.7225C1.83333 7.86411 2.23453 8.83463 3.03692 9.63406C3.83931 10.4335 4.81311 10.8329 5.95833 10.8323Z" fill="black"/>
</svg>