<svg xmlns="http://www.w3.org/2000/svg" width="17" height="18" viewBox="0 0 17 18" fill="none">
  <path d="M15.6778 18L9.72778 11.7C9.25556 12.1 8.7125 12.4167 8.09861 12.65C7.48472 12.8833 6.83148 13 6.13889 13C4.42315 13 2.97122 12.3707 1.78311 11.112C0.595 9.85333 0.00062963 8.316 0 6.5C0 4.68333 0.59437 3.146 1.78311 1.888C2.97185 0.63 4.42378 0.000666667 6.13889 0C7.85463 0 9.30656 0.629333 10.4947 1.888C11.6828 3.14667 12.2771 4.684 12.2778 6.5C12.2778 7.23333 12.1676 7.925 11.9472 8.575C11.7269 9.225 11.4278 9.8 11.05 10.3L17 16.6L15.6778 18ZM6.13889 11C7.31944 11 8.32307 10.5623 9.14978 9.687C9.97648 8.81167 10.3895 7.74933 10.3889 6.5C10.3889 5.25 9.97554 4.18733 9.14883 3.312C8.32213 2.43667 7.31881 1.99933 6.13889 2C4.95833 2 3.9547 2.43767 3.128 3.313C2.3013 4.18833 1.88826 5.25067 1.88889 6.5C1.88889 7.75 2.30224 8.81267 3.12894 9.688C3.95565 10.5633 4.95896 11.0007 6.13889 11Z" fill="#454D4A"/>
</svg>