<svg width="67" height="81" viewBox="0 0 67 81" fill="none" xmlns="http://www.w3.org/2000/svg">
<path d="M53.8113 15.4521L33.3634 8.0752L13.1208 15.361C10.5354 16.5753 8.28823 17.3221 8.28823 19.7386V31.7844C8.24381 40.2438 10.5447 48.5483 14.933 55.7669C19.3183 63.0614 25.8192 68.8326 33.5627 72.3057C41.8385 69.6039 48.0182 62.397 51.7937 56.2405C56.1926 49.025 58.504 40.7203 58.4687 32.258V21.4204C58.4687 17.9657 56.6444 16.2839 53.8113 15.4521Z" fill="#FF725E"/>
<g opacity="0.3">
<path d="M33.5635 65.3113C27.4289 62.5268 22.2864 57.9258 18.8241 52.124C15.3482 46.4118 13.5223 39.8402 13.5505 33.1445V24.6929C13.5505 22.7804 14.6982 20.9832 16.9817 19.9146L33.3702 13.7581V8.0752L13.1277 15.361C11.0013 16.2899 8.29506 17.3221 8.29506 19.7386V31.7844C8.25064 40.2438 10.5516 48.5483 14.9399 55.7669C19.3251 63.0614 25.826 68.8326 33.5696 72.3057L33.5635 65.3113Z" fill="black"/>
</g>
<g opacity="0.4">
<path d="M33.5631 72.3057C34.9503 71.849 36.2945 71.2699 37.5802 70.5753C40.734 68.778 43.5994 66.512 46.0795 63.8541C48.3335 61.4166 50.3165 58.7394 51.9934 55.8701C56.4508 48.6046 58.7013 40.1895 58.4691 31.6569V21.7057C58.4691 16.7514 55.926 16.3871 53.7996 15.4521L33.3638 8.0752V13.7581L49.9517 20.0057C52.2351 21.0804 53.3828 22.8715 53.3828 24.7901V33.2416C53.411 39.9363 51.5828 46.5064 48.1032 52.2151C44.7204 57.9851 39.6403 62.5585 33.5631 65.3052V72.3057Z" fill="black"/>
</g>
<path opacity="0.5" d="M38.7884 32.6044V30.9772C38.7419 29.5937 38.1625 28.2825 37.1724 27.3203C36.1822 26.3582 34.8588 25.8203 33.4816 25.8203C32.1043 25.8203 30.781 26.3582 29.7908 27.3203C28.8007 28.2825 28.2212 29.5937 28.1748 30.9772V32.6347C27.4703 32.7395 26.8267 33.095 26.361 33.6365C25.8954 34.1781 25.6387 34.8697 25.6377 35.5855V45.1784C25.6393 45.9696 25.9531 46.7279 26.5103 47.2868C27.0675 47.8457 27.8225 48.1596 28.6097 48.1596H38.5166C38.9066 48.1604 39.2929 48.0838 39.6534 47.9344C40.014 47.7849 40.3417 47.5655 40.6177 47.2886C40.8938 47.0117 41.1128 46.6828 41.2623 46.3207C41.4117 45.9586 41.4886 45.5704 41.4886 45.1784V35.5855C41.4902 34.8394 41.214 34.1197 40.7143 33.5681C40.2146 33.0164 39.5276 32.6726 38.7884 32.6044ZM34.9223 42.7802H32.3308L32.7356 40.9041C32.4495 40.7186 32.2309 40.4451 32.1124 40.1243C31.9938 39.8036 31.9818 39.4529 32.078 39.1247C32.1742 38.7965 32.3734 38.5084 32.6461 38.3035C32.9187 38.0986 33.2499 37.9879 33.5903 37.9879C33.9307 37.9879 34.262 38.0986 34.5346 38.3035C34.8072 38.5084 35.0065 38.7965 35.1027 39.1247C35.1989 39.4529 35.1868 39.8036 35.0683 40.1243C34.9498 40.4451 34.7311 40.7186 34.4451 40.9041L34.9223 42.7802ZM37.6467 32.5922H29.3165V30.9772C29.3575 29.8945 29.8143 28.8699 30.5909 28.1185C31.3676 27.3671 32.4036 26.9473 33.4816 26.9473C34.5596 26.9473 35.5956 27.3671 36.3723 28.1185C37.1489 28.8699 37.6057 29.8945 37.6467 30.9772V32.5922Z" fill="white"/>
<path d="M16.8605 32.4886C16.688 31.9476 16.5865 31.3863 16.5585 30.8189C16.4021 29.4609 16.3455 28.0931 16.3894 26.7267C16.3894 25.9253 16.4679 25.1663 16.5404 24.4742C16.5678 23.8425 16.7219 23.223 16.9934 22.6527C17.19 22.2646 17.5027 21.9482 17.8875 21.7481C18.1653 21.6145 18.3405 21.6206 18.3405 21.6448C17.8475 21.8745 17.4515 22.2725 17.223 22.7681C17.0006 23.3183 16.8798 23.9047 16.8666 24.4985C16.8122 25.1845 16.7699 25.9374 16.7458 26.7328C16.7035 28.3174 16.7458 29.7685 16.8062 30.7885C16.8724 31.3526 16.8906 31.9214 16.8605 32.4886Z" fill="white"/>
<path d="M17.1748 37.7344C17.0781 37.7344 16.9875 37.2426 16.9754 36.6294C16.9634 36.0162 17.0358 35.5183 17.1325 35.5123C17.2291 35.5062 17.3198 36.0101 17.3318 36.6233C17.3439 37.2366 17.2594 37.7344 17.1748 37.7344Z" fill="white"/>
<path d="M60.7525 9.35619C61.3052 9.48899 61.8465 9.66562 62.3715 9.88441C63.0132 10.1419 63.6216 10.4762 64.1837 10.8801C64.9782 11.4254 65.6358 12.1487 66.1046 12.993C66.6697 14.0657 66.972 15.2584 66.9866 16.472C66.9866 17.7956 66.9866 19.2285 66.9866 20.7767C66.9866 23.8671 67.0168 27.4007 66.9866 31.3411C66.9301 35.6714 66.3747 39.9806 65.3314 44.1824C64.1064 49.0756 62.2138 53.7749 59.7075 58.1468C56.9028 63.0413 53.4276 67.5152 49.3839 71.4374C45.1553 75.4992 39.9361 79.0935 33.841 81H33.7866H33.7323C31.5975 80.0832 29.5144 79.0495 27.4922 77.9035C25.4245 76.6992 23.4333 75.367 21.53 73.9145C17.6022 70.8943 14.1061 67.3457 11.1399 63.3683C4.72278 54.8678 0.904933 44.6744 0.15178 34.0308C-0.0415234 31.5111 0.01284 29.0218 0.00679922 26.575V19.3317C0.00679922 18.1174 0.00679922 16.9759 0.00679922 15.8163C-0.0119939 15.2307 0.00818134 14.6445 0.0672011 14.0616C0.155339 13.4688 0.396995 12.9098 0.76793 12.4405C1.52832 11.5775 2.47171 10.8969 3.52855 10.4491C4.53736 9.96942 5.5522 9.55048 6.54893 9.10726L33.4846 0H33.5148H33.551L53.5338 6.86687L58.8678 8.68833L60.2391 9.16798L60.7042 9.34405C60.7042 9.34405 60.5411 9.30155 60.233 9.19833L58.8497 8.74297L53.4976 6.92152L33.5329 0.17607H33.5994L6.68786 9.36226C5.69718 9.80548 4.67629 10.2244 3.66749 10.7041C2.64829 11.136 1.73809 11.7915 1.00352 12.6227C0.662241 13.0547 0.441269 13.5702 0.363201 14.1163C0.308202 14.6832 0.290043 15.2531 0.308836 15.8223V19.3378C0.308836 21.6996 0.308836 24.11 0.308836 26.5507C0.308836 28.9915 0.266551 31.4808 0.459855 33.9822C1.21209 44.5668 5.01095 54.703 11.3936 63.1558C14.3449 67.1102 17.8227 70.6383 21.7293 73.6413C23.6201 75.0864 25.5993 76.4105 27.6553 77.606C29.6745 78.7591 31.7557 79.7989 33.8893 80.7207H33.7866C39.8274 78.8385 44.9922 75.2563 49.2207 71.237C53.2512 67.3384 56.7181 62.8913 59.5202 58.0254C62.0143 53.684 63.9064 49.0205 65.1442 44.1641C66.194 39.9814 66.7596 35.6908 66.8295 31.3776C66.8295 27.4432 66.8295 23.9035 66.8658 20.8131C66.8658 19.2649 66.8658 17.8259 66.8658 16.5145C66.8641 15.3179 66.5761 14.1393 66.0261 13.078C65.5702 12.2447 64.932 11.5264 64.1595 10.9773C63.5952 10.5736 62.9873 10.2355 62.3473 9.96942C61.9523 9.80292 61.5491 9.65701 61.1391 9.53227L60.7525 9.35619Z" fill="#FF2000"/>
</svg>
