<svg width="97" height="96" viewBox="0 0 97 96" fill="none" xmlns="http://www.w3.org/2000/svg">
<circle cx="48.3565" cy="47.8411" r="47.7041" fill="white"/>
<path d="M56.9638 29.022H26.3281V55.5729H56.9638V29.022Z" stroke="black" stroke-width="1.75061" stroke-linecap="round" stroke-linejoin="round"/>
<path d="M56.9648 39.2338H65.1344L71.2615 45.3609V55.5728H56.9648V39.2338Z" stroke="black" stroke-width="1.75061" stroke-linecap="round" stroke-linejoin="round"/>
<path d="M35.5161 65.7848C38.336 65.7848 40.622 63.4988 40.622 60.6788C40.622 57.8589 38.336 55.5729 35.5161 55.5729C32.6962 55.5729 30.4102 57.8589 30.4102 60.6788C30.4102 63.4988 32.6962 65.7848 35.5161 65.7848Z" stroke="black" stroke-width="1.75061" stroke-linecap="round" stroke-linejoin="round"/>
<path d="M62.0708 65.7848C64.8907 65.7848 67.1767 63.4988 67.1767 60.6788C67.1767 57.8589 64.8907 55.5729 62.0708 55.5729C59.2509 55.5729 56.9648 57.8589 56.9648 60.6788C56.9648 63.4988 59.2509 65.7848 62.0708 65.7848Z" stroke="black" stroke-width="1.75061" stroke-linecap="round" stroke-linejoin="round"/>
</svg>
