<svg width="28" height="20" viewBox="0 0 28 20" fill="none" xmlns="http://www.w3.org/2000/svg">
<path d="M6.36364 20C5.30303 20 4.40152 19.6354 3.65909 18.9062C2.91667 18.1771 2.54545 17.2917 2.54545 16.25H0V2.5C0 1.8125 0.249242 1.22396 0.747727 0.734375C1.24621 0.244792 1.84545 0 2.54545 0H20.3636V5H24.1818L28 10V16.25H25.4545C25.4545 17.2917 25.0833 18.1771 24.3409 18.9062C23.5985 19.6354 22.697 20 21.6364 20C20.5758 20 19.6742 19.6354 18.9318 18.9062C18.1894 18.1771 17.8182 17.2917 17.8182 16.25H10.1818C10.1818 17.2917 9.81061 18.1771 9.06818 18.9062C8.32576 19.6354 7.42424 20 6.36364 20ZM6.36364 17.5C6.72424 17.5 7.02652 17.3802 7.27045 17.1406C7.51439 16.901 7.63636 16.6042 7.63636 16.25C7.63636 15.8958 7.51439 15.599 7.27045 15.3594C7.02652 15.1198 6.72424 15 6.36364 15C6.00303 15 5.70076 15.1198 5.45682 15.3594C5.21288 15.599 5.09091 15.8958 5.09091 16.25C5.09091 16.6042 5.21288 16.901 5.45682 17.1406C5.70076 17.3802 6.00303 17.5 6.36364 17.5ZM21.6364 17.5C21.997 17.5 22.2992 17.3802 22.5432 17.1406C22.7871 16.901 22.9091 16.6042 22.9091 16.25C22.9091 15.8958 22.7871 15.599 22.5432 15.3594C22.2992 15.1198 21.997 15 21.6364 15C21.2758 15 20.9735 15.1198 20.7295 15.3594C20.4856 15.599 20.3636 15.8958 20.3636 16.25C20.3636 16.6042 20.4856 16.901 20.7295 17.1406C20.9735 17.3802 21.2758 17.5 21.6364 17.5ZM20.3636 11.25H25.7727L22.9091 7.5H20.3636V11.25Z" fill="black" fill-opacity="0.7"/>
</svg>
