<svg width="14" height="13" viewBox="0 0 14 13" fill="none" xmlns="http://www.w3.org/2000/svg">
<path d="M7.701 10.351C8.415 10.351 9.03833 10.2037 9.571 9.909C10.115 9.603 10.54 9.15533 10.846 8.566H13.175C12.733 9.69933 12.0247 10.572 11.05 11.184C10.0753 11.796 8.959 12.102 7.701 12.102C6.375 12.102 5.19633 11.745 4.165 11.031C3.13367 10.3057 2.414 9.34233 2.006 8.141H0.442V6.815H1.7C1.67733 6.49767 1.666 6.24833 1.666 6.067C1.666 5.88567 1.67733 5.63633 1.7 5.319H0.442V3.993H2.006C2.414 2.79167 3.13367 1.834 4.165 1.12C5.19633 0.394666 6.375 0.0319991 7.701 0.0319991C8.94767 0.0319991 10.0583 0.343666 11.033 0.966999C12.019 1.579 12.733 2.45167 13.175 3.585H10.846C10.54 2.99567 10.115 2.55367 9.571 2.259C9.03833 1.953 8.415 1.8 7.701 1.8C6.87367 1.8 6.14267 1.99267 5.508 2.378C4.88467 2.76333 4.40867 3.30167 4.08 3.993H7.701V5.319H3.706C3.672 5.557 3.655 5.80633 3.655 6.067C3.655 6.32767 3.672 6.577 3.706 6.815H7.701V8.141H4.08C4.40867 8.84367 4.88467 9.38767 5.508 9.773C6.14267 10.1583 6.87367 10.351 7.701 10.351Z" fill="black" fill-opacity="0.4"/>
</svg>
