<svg width="67" height="81" viewBox="0 0 67 81" fill="none" xmlns="http://www.w3.org/2000/svg">
<path d="M60.7615 9.30287L33.4692 0L6.45102 9.18801C3.00017 10.7193 0.00084261 11.6611 0.00084261 14.7085V29.8993C-0.058451 40.5672 3.01266 51.0399 8.86983 60.1432C14.7229 69.3422 23.3998 76.6202 33.7353 81C44.7812 77.5928 53.0294 68.5043 58.0686 60.7404C63.9399 51.6411 67.025 41.1681 66.9779 30.4965V16.8294C66.9779 12.4727 64.5429 10.3518 60.7615 9.30287Z" fill="#67D1A4"/>
<g opacity="0.3">
<path d="M33.7365 72.1795C25.5484 68.668 18.6847 62.8658 14.0634 55.5492C9.42412 48.3457 6.98696 40.0583 7.02468 31.6144V20.9563C7.02468 18.5445 8.55659 16.2781 11.6043 14.9305L33.4785 7.16665V0L6.4603 9.18801C3.62222 10.3595 0.01012 11.6611 0.01012 14.7085V29.8993C-0.0491736 40.5672 3.02194 51.0399 8.87911 60.1432C14.7322 69.3422 23.4091 76.6202 33.7445 81L33.7365 72.1795Z" fill="black"/>
</g>
<g opacity="0.4">
<path d="M33.7358 81C35.5873 80.4241 37.3815 79.6938 39.0975 78.8178C43.3069 76.5512 47.1315 73.6937 50.4418 70.3419C53.4501 67.2679 56.0969 63.8918 58.3352 60.2734C64.2845 51.111 67.2883 40.4988 66.9784 29.7385V17.1892C66.9784 10.9414 63.584 10.482 60.7459 9.30287L33.4697 0V7.16665L55.61 15.0454C58.6577 16.4006 60.1896 18.6593 60.1896 21.0788V31.7369C60.2272 40.1795 57.787 48.465 53.1428 55.6641C48.6276 62.9405 41.8472 68.708 33.7358 72.1718V81Z" fill="black"/>
</g>
<path d="M11.4425 30.7876C11.2122 30.1054 11.0767 29.3976 11.0394 28.682C10.8306 26.9694 10.7551 25.2446 10.8136 23.5214C10.8136 22.5107 10.9184 21.5537 11.0152 20.6808C11.0518 19.8843 11.2574 19.103 11.6199 18.3838C11.8822 17.8944 12.2996 17.4954 12.8131 17.243C13.184 17.0745 13.4179 17.0822 13.4179 17.1128C12.7598 17.4024 12.2312 17.9043 11.9262 18.5293C11.6294 19.2232 11.4682 19.9626 11.4506 20.7114C11.378 21.5766 11.3215 22.5261 11.2893 23.5291C11.2329 25.5275 11.2893 27.3574 11.3699 28.6437C11.4583 29.3551 11.4826 30.0723 11.4425 30.7876Z" fill="white"/>
<path d="M11.8616 37.4028C11.7326 37.4028 11.6116 36.7826 11.5955 36.0092C11.5794 35.2359 11.6761 34.6081 11.8051 34.6004C11.9341 34.5928 12.0551 35.2283 12.0712 36.0016C12.0873 36.7749 11.9745 37.4028 11.8616 37.4028Z" fill="white"/>
<ellipse cx="33.0544" cy="38.9237" rx="13.2219" ry="12.556" fill="white"/>
<path d="M35.2935 46.4574L25.1216 36.9346L27.6646 34.5539L35.2935 41.696L51.6668 26.3677L54.2098 28.7484L35.2935 46.4574Z" fill="#3E7D62"/>
</svg>
