<svg width="25" height="25" viewBox="0 0 25 25" fill="none" xmlns="http://www.w3.org/2000/svg">
<circle cx="12.5" cy="12.5" r="11.5" fill="#DCF3F7" stroke="#17AEC9" stroke-width="2"/>
<path d="M13.5 7.06L13.276 13.822H11.624L11.386 7.06H13.5ZM12.492 17.098C12.1373 17.098 11.8433 16.9907 11.61 16.776C11.386 16.552 11.274 16.2767 11.274 15.95C11.274 15.6233 11.386 15.3527 11.61 15.138C11.8433 14.914 12.1373 14.802 12.492 14.802C12.8373 14.802 13.122 14.914 13.346 15.138C13.57 15.3527 13.682 15.6233 13.682 15.95C13.682 16.2767 13.57 16.552 13.346 16.776C13.122 16.9907 12.8373 17.098 12.492 17.098Z" fill="#17AEC9"/>
</svg>
