<svg xmlns="http://www.w3.org/2000/svg" width="110" height="63" viewBox="0 0 110 63" fill="none">
  <rect x="0.46875" y="0.310364" width="108.844" height="62.5852" rx="10.8844" fill="white"/>
  <path d="M79.001 23.681H75.5421C74.4964 23.681 73.692 24.0028 73.2093 25.0485L66.6133 40.0907H71.2788C71.2788 40.0907 72.0832 38.0797 72.2441 37.5971C72.7267 37.5971 77.3118 37.5971 77.9553 37.5971C78.1162 38.1602 78.5184 40.0103 78.5184 40.0103H82.7012L79.001 23.681ZM73.5311 34.2186C73.9333 33.2534 75.3008 29.6336 75.3008 29.6336C75.3008 29.714 75.703 28.6683 75.8639 28.1052L76.1856 29.5531C76.1856 29.5531 77.0704 33.4947 77.2313 34.2991H73.5311V34.2186Z" fill="#3362AB"/>
  <path d="M66.9344 34.7013C66.9344 38.0797 63.8777 40.332 59.1318 40.332C57.1208 40.332 55.1902 39.9298 54.1445 39.4472L54.788 35.747L55.3511 35.9883C56.799 36.6318 57.7643 36.8731 59.534 36.8731C60.821 36.8731 62.1885 36.3905 62.1885 35.2643C62.1885 34.5404 61.6254 34.0577 59.8558 33.2533C58.1665 32.4489 55.9142 31.1619 55.9142 28.8292C55.9142 25.6116 59.0514 23.4397 63.4755 23.4397C65.1648 23.4397 66.6127 23.7615 67.4975 24.1637L66.854 27.703L66.5323 27.3812C65.7279 27.0595 64.6821 26.7377 63.1538 26.7377C61.4645 26.8182 60.6601 27.5421 60.6601 28.1856C60.6601 28.9096 61.6254 29.4727 63.1538 30.1966C65.7279 31.4032 66.9344 32.7707 66.9344 34.7013Z" fill="#3362AB"/>
  <path d="M27.6797 23.8417L27.7601 23.52H34.6779C35.6432 23.52 36.3672 23.8417 36.6085 24.8874L38.1369 32.127C36.6085 28.2659 33.0692 25.1288 27.6797 23.8417Z" fill="#F9B50B"/>
  <path d="M47.8697 23.681L40.8714 40.0102H36.1255L32.1035 26.3355C34.9993 28.1856 37.4125 31.0814 38.2974 33.0924L38.78 34.7816L43.1238 23.6005H47.8697V23.681Z" fill="#3362AB"/>
  <path d="M49.7197 23.6005H54.1439L51.3285 40.0102H46.9043L49.7197 23.6005Z" fill="#3362AB"/>
</svg>