<svg xmlns="http://www.w3.org/2000/svg" width="15" height="15" viewBox="0 0 15 15" fill="none">
  <path d="M10.8434 5.83625C10.6158 5.83625 10.425 5.76175 10.2711 5.61274C10.1171 5.46374 10.0402 5.2791 10.0402 5.05883C10.0402 4.83857 10.1171 4.65393 10.2711 4.50492C10.425 4.35592 10.6158 4.28142 10.8434 4.28142C11.071 4.28142 11.2617 4.35592 11.4157 4.50492C11.5696 4.65393 11.6466 4.83857 11.6466 5.05883C11.6466 5.2791 11.5696 5.46374 11.4157 5.61274C11.2617 5.76175 11.071 5.83625 10.8434 5.83625ZM8.99598 3.97045L8.23293 3.21247C8.58099 2.87558 8.98017 2.61321 9.43046 2.42533C9.88077 2.23745 10.3527 2.14352 10.8461 2.14352C11.3396 2.14352 11.8106 2.23745 12.259 2.42533C12.7075 2.61321 13.1058 2.87558 13.4538 3.21247L12.6908 3.97045C12.4364 3.72427 12.1535 3.53639 11.842 3.40682C11.5305 3.27725 11.1976 3.21247 10.8434 3.21247C10.4891 3.21247 10.1562 3.27725 9.84476 3.40682C9.53326 3.53639 9.25033 3.72427 8.99598 3.97045ZM7.4498 2.43505L6.68675 1.6965C7.249 1.15231 7.88487 0.734445 8.59438 0.442913C9.30388 0.151381 10.0535 0.00561523 10.8434 0.00561523C11.6332 0.00561523 12.3829 0.151381 13.0924 0.442913C13.8019 0.734445 14.4378 1.15231 15 1.6965L14.2369 2.43505C13.7815 1.99349 13.2615 1.65635 12.6768 1.42365C12.0921 1.19093 11.4797 1.07457 10.8396 1.07457C10.1996 1.07457 9.59114 1.19391 9.0144 1.43259C8.43764 1.67127 7.9161 2.00542 7.4498 2.43505ZM13.5542 14.0186C12.0013 14.0186 10.4183 13.6558 8.80522 12.9302C7.1921 12.2046 5.69612 11.1745 4.31727 9.83996C2.93842 8.50539 1.87416 7.05745 1.1245 5.49613C0.374833 3.93482 0 2.40265 0 0.899646C0 0.649758 0.0860575 0.44152 0.258173 0.274932C0.430288 0.108344 0.645435 0.0250507 0.903614 0.0250507H3.71486C3.90228 0.0250507 4.06292 0.0898355 4.19679 0.219405C4.33066 0.348975 4.42436 0.510937 4.47791 0.705292L5.01865 3.14718C5.04638 3.33323 5.04351 3.50076 5.01004 3.64976C4.97657 3.79877 4.90476 3.92656 4.7946 4.03315L2.79116 5.99174C3.13922 6.56184 3.50736 7.09308 3.89558 7.58544C4.2838 8.07781 4.71218 8.54426 5.18072 8.9848C5.67604 9.47716 6.19813 9.92742 6.74699 10.3356C7.29585 10.7437 7.87149 11.1033 8.4739 11.4142L10.3815 9.50955C10.5154 9.36703 10.6704 9.26985 10.8464 9.21802C11.0225 9.16619 11.1955 9.15324 11.3655 9.17915L13.755 9.68447C13.9558 9.7363 14.1232 9.84024 14.257 9.99629C14.3909 10.1523 14.4578 10.327 14.4578 10.5202V13.144C14.4578 13.3939 14.3718 13.6021 14.1997 13.7687C14.0275 13.9353 13.8124 14.0186 13.5542 14.0186ZM2.18876 4.92279L3.81526 3.32908L3.35341 1.19118H1.20482C1.23159 1.73537 1.32195 2.30872 1.4759 2.91122C1.62985 3.51372 1.86747 4.18424 2.18876 4.92279ZM9.59839 11.9779C10.1473 12.224 10.743 12.4249 11.3855 12.5804C12.0281 12.7358 12.6506 12.8265 13.253 12.8525V10.7729L11.1847 10.3647L9.59839 11.9779Z" fill="white"/>
</svg>