<svg xmlns="http://www.w3.org/2000/svg" width="17" height="17" viewBox="0 0 17 17" fill="none">
  <path d="M10.8859 3.95496C10.0014 3.95496 9.1526 4.37719 8.59856 5.04442C8.04452 4.37719 7.19567 3.95496 6.31124 3.95496C4.7457 3.95496 3.51562 5.21644 3.51562 6.82196C3.51562 8.79237 5.24382 10.3979 7.86153 12.8375L8.59856 13.5203L9.33559 12.8322C11.9533 10.3979 13.6815 8.79237 13.6815 6.82196C13.6815 5.21644 12.4514 3.95496 10.8859 3.95496ZM8.64939 12.0608L8.59856 12.1129L8.54773 12.0608C6.12825 9.81406 4.53221 8.32844 4.53221 6.82196C4.53221 5.77941 5.29465 4.9975 6.31124 4.9975C7.09401 4.9975 7.85645 5.51356 8.12585 6.22771H9.07635C9.34067 5.51356 10.1031 4.9975 10.8859 4.9975C11.9025 4.9975 12.6649 5.77941 12.6649 6.82196C12.6649 8.32844 11.0689 9.81406 8.64939 12.0608Z" fill="#17AEC9"/>
  <rect x="0.378014" y="0.415367" width="16.1458" height="16.1415" rx="2.24247" stroke="#A0A0A0" stroke-width="0.298996"/>
</svg>